<svg width="97" height="67" viewBox="0 0 97 67" fill="none" xmlns="http://www.w3.org/2000/svg">
<path fill-rule="evenodd" clip-rule="evenodd" d="M92.7134 25.2237C84.0237 16.218 73.9898 6.32541 58.8468 2.55625C51.5505 0.740012 41.3975 -1.72788 31.3125 1.76097C21.8848 5.02234 16.1169 11.4949 12.0728 18.259C10.0863 21.5817 8.45566 25.0727 7.00967 28.338C6.52046 29.4426 6.06178 30.4986 5.61675 31.5232L5.6162 31.5246L5.61535 31.5264L5.61472 31.5279L5.61379 31.53L5.61058 31.5375C4.68158 33.6764 3.81191 35.6788 2.84817 37.7022C0.405108 42.8322 -2.34013 51.1394 3.38507 59.2304C5.7379 62.555 9.32323 64.5627 12.4012 65.6134C15.4997 66.6712 19.46 67.2309 23.2264 66.2122C28.8116 64.7017 34.1979 60.3303 37.0326 57.7527C39.1359 55.8395 40.4899 53.482 41.2269 52.1987L41.3015 52.0683L41.3632 51.9614C42.2852 50.3658 42.5792 49.9771 42.8033 49.7695C43.7652 48.8811 44.76 48.558 46.758 49.0052C49.1251 49.5353 51.9556 51.0278 55.0281 53.08C55.516 53.4055 56.0561 53.8177 56.8929 54.4547L57.0795 54.5967C57.928 55.2423 59.0326 56.0783 60.2308 56.8527C62.4516 58.2874 66.2563 60.3732 70.9322 59.9689C77.7156 59.3819 84.9597 56.0768 89.8213 51.173C92.416 48.5572 94.8359 44.6721 95.9889 40.4935C97.1231 36.3828 97.4338 30.1157 92.7134 25.2237ZM55.0765 17.7061C65.2852 20.2473 72.5215 26.8088 81.0785 35.6505C81.059 35.8251 81.0176 36.0561 80.9388 36.3411C80.7608 36.9883 80.4384 37.7409 79.9966 38.4905C79.5524 39.2445 79.0848 39.8284 78.7351 40.1813C76.6111 42.3232 73.0093 44.0312 69.8807 44.3848C69.716 44.32 69.3405 44.1507 68.7027 43.7385C68.0658 43.3279 67.3929 42.8267 66.5358 42.1742L66.2891 41.986C65.5561 41.4271 64.6178 40.7113 63.6998 40.0977C60.2425 37.7883 55.4473 34.9523 50.1696 33.7705C44.5231 32.506 37.8543 33.0873 32.2093 38.3023C30.0796 40.2695 28.7218 42.6285 27.9626 43.9477C27.9221 44.018 27.8834 44.0851 27.8463 44.1491C27.4025 44.9172 27.1378 45.3684 26.8756 45.7532C26.6395 46.0998 26.5285 46.2029 26.5285 46.2029C23.8786 48.6126 20.8959 50.6476 19.1951 51.1293C19.1625 51.1324 19.026 51.1457 18.7758 51.1262C18.4025 51.0973 17.9351 51.0059 17.4445 50.8389C16.9524 50.6703 16.5526 50.4658 16.281 50.2847C16.1719 50.2121 16.1051 50.1574 16.0712 50.1285C15.6688 49.5306 15.5836 49.0716 15.6272 48.451C15.6892 47.5689 16.0488 46.2934 16.9434 44.4153C18.0254 42.1429 19.0769 39.7238 20.0617 37.457L20.0629 37.4543C20.4833 36.487 20.8914 35.5476 21.2847 34.6596C22.6667 31.5389 23.9887 28.7526 25.4727 26.2704C28.3699 21.4246 31.6147 18.1763 36.4166 16.5151C41.5381 14.7435 47.3048 15.7718 55.0765 17.7061Z" fill="#212427"/>
</svg>
