<svg width="230" height="293" viewBox="0 0 230 293" fill="none" xmlns="http://www.w3.org/2000/svg">
<path d="M30.5439 282.513V223.919H44.2158V230.716C44.8408 228.32 45.9085 226.484 47.4189 225.208C48.9294 223.932 51.1429 223.294 54.0596 223.294C56.4033 223.294 58.3955 223.841 60.0361 224.935C61.7028 226.002 62.8747 227.422 63.5518 229.192C64.6195 227.265 65.8695 225.807 67.3018 224.817C68.7601 223.802 70.8304 223.294 73.5127 223.294C76.7679 223.294 79.2679 223.997 81.0127 225.403C82.7835 226.784 84.0075 228.711 84.6846 231.185C85.3877 233.632 85.7393 236.471 85.7393 239.7V282.513H71.7939V239.466C71.7939 235.69 70.8304 233.802 68.9033 233.802C67.8877 233.802 67.1064 234.153 66.5596 234.856C66.0127 235.534 65.6351 236.38 65.4268 237.396C65.2184 238.411 65.1143 239.427 65.1143 240.442V282.513H51.1689V239.466C51.1689 238.242 51.0127 237.018 50.7002 235.794C50.4137 234.57 49.6585 233.958 48.4346 233.958C47.3929 233.958 46.5856 234.336 46.0127 235.091C45.4398 235.846 45.0492 236.784 44.8408 237.903C44.6325 238.997 44.5283 240.078 44.5283 241.146V282.513H30.5439ZM90.1143 292.278V283.411H96.833C97.8486 283.411 98.3564 283.06 98.3564 282.356C98.3564 281.992 98.3174 281.614 98.2393 281.224L89.0596 223.919H102.458L106.364 267.044L110.974 223.919H124.45L113.591 285.56C113.2 287.773 112.445 289.44 111.325 290.56C110.231 291.705 108.422 292.278 105.896 292.278H90.1143ZM128.122 282.513V223.919H142.106V231.38C142.627 229.14 143.591 227.239 144.997 225.677C146.429 224.088 148.409 223.294 150.935 223.294C154.997 223.294 157.94 224.544 159.763 227.044C161.612 229.544 162.536 232.968 162.536 237.317V282.513H148.747V238.763C148.747 237.617 148.513 236.562 148.044 235.599C147.575 234.609 146.768 234.114 145.622 234.114C144.554 234.114 143.76 234.492 143.239 235.247C142.744 235.976 142.432 236.901 142.302 238.021C142.172 239.114 142.106 240.208 142.106 241.302V282.513H128.122ZM184.45 283.138C180.284 283.138 176.963 282.356 174.489 280.794C172.015 279.231 170.244 276.979 169.177 274.036C168.109 271.093 167.575 267.552 167.575 263.411V239.856C167.575 234.414 169.138 230.299 172.263 227.513C175.388 224.7 179.685 223.294 185.153 223.294C196.403 223.294 202.028 228.815 202.028 239.856V244.114C202.028 249.271 201.976 252.734 201.872 254.505H181.56V265.833C181.56 266.875 181.625 267.903 181.755 268.919C181.885 269.909 182.172 270.729 182.614 271.38C183.083 272.031 183.825 272.356 184.841 272.356C186.299 272.356 187.211 271.731 187.575 270.481C187.94 269.205 188.122 267.552 188.122 265.521V259.896H202.028V263.216C202.028 267.591 201.481 271.263 200.388 274.231C199.32 277.174 197.497 279.401 194.919 280.911C192.367 282.396 188.877 283.138 184.45 283.138ZM181.481 247.552H188.122V239.661C188.122 237.552 187.862 236.041 187.341 235.13C186.82 234.192 186.039 233.724 184.997 233.724C183.877 233.724 183.005 234.166 182.38 235.052C181.781 235.937 181.481 237.474 181.481 239.661V247.552Z" fill="#212427"/>
<path d="M24.8566 132.761C14.538 109.127 -0.380976 57.5289 15.3709 34.8981C29.8073 14.1573 46.7654 23.7878 50.3231 34.8981C54.7211 53.3075 55.1398 86.0238 68.2356 86.0238C85.2876 86.0238 84.4663 45.3754 87.0484 34.8981C89.6306 24.4209 95.5657 5.4719 113.239 8.92796C137.836 13.7381 134.068 38.1894 134.068 58.1227C134.068 79.0586 163.378 82.6177 169.659 75.4995C177.18 66.9756 179.545 25.4316 200.435 29.4404C221.325 33.4492 227.802 58.2518 213.415 77.8025C199.029 97.3531 149.02 104.837 119.879 109.632C90.7372 114.427 80.0397 121.805 81.8841 135.454C83.7285 149.102 107.548 156.282 135.952 152.963C164.356 149.643 222.796 135.454 222.796 135.454" stroke="#212427" stroke-width="17.0261"/>
</svg>
