<svg width="390" height="226" viewBox="0 0 390 226" fill="none" xmlns="http://www.w3.org/2000/svg">
<path d="M389.998 -26.6142C388.234 -24.1783 385.721 -21.7182 382.592 -19.7721C377.4 -16.5437 371.383 -15.2582 365.474 -17.1458C360.882 -18.6114 359.306 -21.1285 358.672 -24.0075C357.901 -27.5081 358.535 -32.061 360.027 -36.365L362.582 -43.7352L347.842 -48.8442L345.288 -41.474C343.312 -35.7738 341.802 -28.0767 343.437 -20.6527C345.209 -12.607 350.587 -5.52381 360.728 -2.28525C371.551 1.17171 381.952 -1.27671 389.998 -6.02067V-26.6142Z" fill="#212427"/>
<path d="M390.001 77.9643C388.742 75.0963 387.918 71.8125 387.918 69.2104C387.918 68.0755 388.091 66.8431 388.403 65.0545C388.432 64.8876 388.463 64.7137 388.495 64.5327L388.509 64.4539C388.784 62.8986 389.146 60.8558 389.282 58.7693C389.819 50.5122 388.751 42.1873 383.544 34.4473C380.517 29.9483 375.752 24.4376 368.535 22.4891C363.022 21.0017 356.898 21.8269 353.107 22.3378L353.098 22.3386C352.69 22.394 352.308 22.4455 351.958 22.4891C346.829 23.1389 342.545 23.1241 338.459 21.9166C334.416 20.7225 331.366 18.0736 329.918 13.4684C327.368 5.36736 320.732 -5.23283 309.234 -6.75695C300.999 -7.84739 293.35 -3.64865 288.226 1.48063C283.01 6.70117 278.941 14.2874 278.941 22.4712C278.941 31.052 281.779 40.0353 285.257 47.1551C287.023 50.7704 289.06 54.1236 291.197 56.8965C293.209 59.5095 295.781 62.2294 298.785 63.8323C302.777 65.9617 306.883 67.0552 310.562 67.7767C312.402 68.1371 314.225 68.4202 315.895 68.6737L316.475 68.7619C317.964 68.9873 319.32 69.1924 320.653 69.4327C325.022 70.2189 329.323 71.4934 333.524 73.2336C340.848 76.2686 345.607 82.7293 347.144 92.9411C347.217 109.429 350.492 121.375 356.243 130.645C362.016 139.949 369.825 145.778 377.193 150.655C379.873 152.429 383.317 153.536 386.511 154.201C387.632 154.433 388.801 154.628 390.001 154.779V138.99C389.896 138.97 389.791 138.949 389.687 138.927C387.376 138.446 386.124 137.858 385.804 137.647C378.908 133.081 373.439 128.77 369.499 122.42C365.605 116.143 362.742 107.09 362.742 92.3725V91.8343L362.669 91.3015C360.649 76.7249 353.241 64.5179 339.496 58.8223C334.3 56.6695 328.925 55.0705 323.415 54.0791C321.854 53.7983 320.271 53.5589 318.808 53.3374L318.238 53.2508C316.571 52.9973 315.042 52.7578 313.562 52.4677C310.601 51.8873 308.188 51.1666 306.127 50.0676C306.129 50.0692 306.13 50.0692 306.129 50.0684L306.127 50.0676L306.125 50.0661C306.089 50.0427 305.831 49.8781 305.369 49.4389C304.865 48.9592 304.249 48.2783 303.555 47.3766C302.161 45.5678 300.658 43.1412 299.274 40.3075C296.45 34.5269 294.541 27.9304 294.541 22.4712C294.541 19.3606 296.231 15.5401 299.261 12.5067C302.384 9.38202 305.468 8.48113 307.185 8.70811C309.585 9.02635 313.135 12.1058 315.037 18.15C318.14 28.0178 325.333 34.3054 334.04 36.8778C341.051 38.9487 347.763 38.7451 353.917 37.9659L354.456 37.898C359.144 37.3029 362.142 36.9223 364.47 37.5509C366.17 38.0096 368.232 39.6351 370.601 43.156C373.234 47.0701 374.118 51.5652 373.715 57.7576C373.639 58.9284 373.437 60.0797 373.147 61.7333C373.111 61.9392 373.073 62.1545 373.034 62.3776C372.716 64.2059 372.318 66.6044 372.318 69.2104C372.318 74.7297 373.963 80.3823 375.934 84.7199C378.759 90.9365 384.636 95.111 388.906 97.1765C389.268 97.352 389.633 97.547 390.001 97.7591V77.9643Z" fill="#212427"/>
<path d="M390.001 174.069C388.483 173.488 386.776 172.744 384.807 171.812C380.116 169.59 373.912 166.989 367.339 165.722C360.805 164.461 353.03 164.351 345.92 168.18C334.3 174.437 327.691 187.281 325.924 199.714C324.721 208.18 325.618 217.491 329.474 225.535H349.486C348.63 225.174 348.018 224.799 347.652 224.459C342.429 219.595 340.067 211.07 341.369 201.908C342.675 192.711 347.36 185.122 353.316 181.916C356.019 180.46 359.687 180.133 364.384 181.04C369.041 181.937 373.856 183.886 378.128 185.91C382.171 187.826 386.051 189.439 390.001 190.416V174.069Z" fill="#212427"/>
<path d="M390 216.573C386.606 217.478 383.638 218.847 381.038 220.19C379.504 220.983 378.175 221.713 376.956 222.382C374.672 223.637 372.771 224.681 370.617 225.535H390V216.573Z" fill="#212427"/>
<path d="M300.092 225.535L299.248 224.369L297.637 225.535H300.092Z" fill="#212427"/>
<path d="M236.549 225.535C236.3 225.059 236.056 224.578 235.816 224.093C231.907 216.203 224.635 212.975 218.143 211.926C211.769 210.897 205.186 211.748 200.338 212.832C196.747 213.634 193.25 215.464 190.534 216.967C189.574 217.498 188.686 218.002 187.842 218.481L187.834 218.486L187.831 218.488C185.957 219.552 184.297 220.495 182.536 221.339C180.026 222.54 178.413 222.962 177.406 222.985C176.83 222.998 176.442 222.935 175.761 222.222C170.474 216.69 166.295 209.741 166.112 204.182C166.056 202.503 166.309 200.782 166.758 198.373C166.803 198.129 166.851 197.874 166.902 197.609L166.903 197.602C167.306 195.478 167.827 192.726 167.954 189.838C168.259 182.853 167.08 176.315 165.388 170.202L163.309 162.684L148.273 166.844L150.353 174.361C151.787 179.544 152.578 184.358 152.368 189.156C152.294 190.858 151.99 192.48 151.567 194.744L151.565 194.751C151.518 194.998 151.471 195.254 151.422 195.517C150.961 197.994 150.404 201.175 150.52 204.699C150.775 212.392 154.261 219.668 158.357 225.535H236.549Z" fill="#212427"/>
<path d="M110.958 225.535C110.71 222.338 110.028 219.208 109.105 216.342C107.2 210.424 103.946 204.606 99.8127 200.473C97.9134 198.573 95.4392 196.446 93.3052 194.612C92.1601 193.628 91.1126 192.727 90.3053 191.992C87.4965 189.434 85.52 187.199 84.2868 184.733C83.7424 183.644 83.5232 182.245 83.5216 179.354C83.5216 179.014 83.5263 178.635 83.531 178.222C83.5614 175.714 83.6059 171.97 82.7104 168.39C81.6231 164.037 79.053 159.425 76.1221 155.677C73.2584 152.017 69.1723 148.056 64.348 146.192C58.9021 144.088 53.1138 145.205 48.9359 146.733C44.5904 148.322 40.3936 150.927 37.4748 153.846C35.1064 156.214 32.6129 159.215 30.4288 161.844C29.3711 163.118 28.3856 164.303 27.5223 165.288C24.4537 168.787 21.7884 171.226 18.9081 172.627C13.5077 175.254 10.1378 175.942 7.21654 175.805C5.17415 175.708 2.94328 175.194 0 174.068V190.416C2.12823 190.942 4.27674 191.283 6.48196 191.387C12.954 191.693 19.007 189.927 25.7325 186.655C31.4786 183.859 35.81 179.497 39.2505 175.574C40.7611 173.852 42.0219 172.325 43.1865 170.914C45.0004 168.716 46.5805 166.802 48.5057 164.877C49.6365 163.746 51.8231 162.288 54.2936 161.384C56.9317 160.419 58.3919 160.615 58.7258 160.743C59.7635 161.144 61.734 162.603 63.8346 165.288C65.8677 167.888 67.1706 170.549 67.5765 172.173C67.9463 173.652 67.9392 175.103 67.9268 177.644V177.645C67.9243 178.168 67.9215 178.736 67.9218 179.36C67.923 182.533 68.0428 187.128 70.3337 191.709C72.8465 196.735 76.49 200.51 79.801 203.526C81.4164 204.997 82.7689 206.146 84.006 207.199C85.6846 208.626 87.1525 209.875 88.7812 211.503C90.8209 213.543 92.9456 217.052 94.2552 221.122C94.7536 222.67 95.089 224.155 95.2762 225.535H110.958Z" fill="#212427"/>
<path d="M43.7866 225.535C42.8661 225.043 41.942 224.563 41.0186 224.101C30.7713 218.977 20.2071 215.521 7.89025 215.521C5.03265 215.521 2.40921 215.93 0 216.573V225.535H43.7866Z" fill="#212427"/>
<path d="M0 154.779C2.38594 155.079 4.89549 155.207 7.39364 155.119C11.1067 154.991 15.1464 154.375 18.8297 152.881C22.5194 151.384 26.3887 148.767 28.6747 144.359C33.4546 135.141 33.0388 127.323 32.613 119.319L32.6115 119.29C31.9695 107.218 26.7453 99.3113 18.8492 92.6274C18.5511 92.3755 18.2386 92.1087 17.9126 91.8311L17.9118 91.8303C14.7631 89.1448 10.3614 85.3898 5.69967 83.1341C3.08605 81.8697 0.845138 79.8284 0.134705 78.2653C0.0892733 78.1655 0.0443662 78.0649 0 77.9642V97.7591C2.4331 99.1638 5.01205 101.349 8.09796 103.965L8.11005 103.975C8.32751 104.16 8.54747 104.346 8.77016 104.534C14.1275 109.069 16.6667 113.222 17.0335 120.119C17.4588 128.114 17.479 132.061 14.826 137.177C14.7777 137.27 14.448 137.824 12.9648 138.425C11.4752 139.03 9.36796 139.441 6.85123 139.53C4.49509 139.612 2.08704 139.398 0 138.99V154.779Z" fill="#212427"/>
<path d="M151.401 -52.3722C152.865 -53.3152 155.928 -53.596 160.614 -52.5375C168.644 -50.7248 172.367 -46.53 172.809 -42.2953C173.249 -38.0927 173.213 -33.8292 173.172 -29.0307L173.168 -28.5564C173.129 -23.7235 173.101 -18.3493 173.788 -12.887C174.817 -4.70403 176.855 8.05598 190.712 13.764C193.833 15.0502 198.185 15.9379 202.16 16.3396C205.953 16.7234 210.944 16.8333 214.898 15.519C222.781 12.8974 226.403 6.45544 228.246 1.27155C229.174 -1.33989 229.781 -3.98019 230.247 -6.17277C230.387 -6.83655 230.512 -7.43871 230.626 -7.9925C230.926 -9.44643 231.158 -10.5688 231.439 -11.5984C232.823 -16.6723 235.492 -23.9014 239.382 -28.6485C241.266 -30.9495 243.031 -32.1631 244.575 -32.6405C245.905 -33.0516 247.868 -33.1732 250.933 -31.6608C255.926 -29.196 258.818 -24.8109 259.937 -19.3899C261.091 -13.8043 260.223 -7.54401 257.921 -2.63859C250.782 12.5699 233.517 20.6897 212.326 24.989C203.61 26.758 194.958 27.7487 185.939 28.7806H185.939C181.586 29.279 177.149 29.7868 172.577 30.3968C165.384 31.3561 156.962 32.665 149.112 35.2764C141.279 37.8816 133.288 42.0149 127.609 49.1129C123.521 54.225 121.557 60.238 122.64 66.5825C123.679 72.6634 127.32 77.8816 132.035 82.156C136.645 86.3352 143.295 88.3671 149.519 89.4607C156.018 90.6026 163.39 90.9364 170.597 90.8085C184.953 90.5542 199.822 88.4373 207.928 86.322C219.304 83.3541 253.066 76.2335 264.424 74.9449L272.174 74.0658L270.416 58.5657L262.666 59.4447C250.246 60.8534 215.671 68.18 203.99 71.2274C197.286 72.9762 183.673 74.9745 170.32 75.2117C163.672 75.3295 157.382 75.0034 152.218 74.0963C146.779 73.1407 143.764 71.7328 142.514 70.5995C139.363 67.7431 138.272 65.4468 138.018 63.9555C137.808 62.7277 137.99 61.11 139.791 58.8582C142.845 55.0401 147.668 52.197 154.035 50.0793C160.385 47.967 167.551 46.8056 174.64 45.8595C178.588 45.333 182.691 44.8619 186.876 44.3814H186.879H186.88C196.258 43.305 206.049 42.181 215.428 40.2778C237.549 35.7889 261.553 26.3376 272.043 3.98907C275.709 -3.82185 277.082 -13.5063 275.215 -22.5457C273.313 -31.7505 267.923 -40.6714 257.837 -45.6493C251.7 -48.6789 245.62 -49.2904 239.97 -47.5455C234.533 -45.8654 230.381 -42.2774 227.315 -38.5357C221.303 -31.1983 217.939 -21.3843 216.389 -15.7051C215.967 -14.1584 215.592 -12.3379 215.262 -10.7389L215.261 -10.7334C215.166 -10.2701 215.074 -9.8255 214.986 -9.41132C214.55 -7.35524 214.114 -5.54876 213.547 -3.95288C212.397 -0.719002 211.215 0.304359 209.976 0.715416C209.302 0.940056 207.076 1.15767 203.73 0.819153C200.564 0.498573 197.854 -0.165207 196.653 -0.659721C191.69 -2.70489 190.304 -6.57212 189.265 -14.8339C188.726 -19.1208 188.727 -23.5067 188.768 -28.4277L188.775 -29.182C188.814 -33.7504 188.858 -38.815 188.325 -43.9177C186.899 -57.5529 175.426 -65.1868 164.05 -67.7545C158.814 -68.937 150.118 -70.1016 142.953 -65.4863C135.29 -60.5505 130.687 -53.0687 128.471 -45.7016C125.29 -35.131 122.925 -24.9466 120.882 -14.2856C119.777 -8.52291 118.501 -2.72517 117.033 2.92282C116.941 3.28084 116.844 3.68176 116.759 4.03042L116.71 4.23477C116.606 4.65909 116.508 5.05689 116.402 5.45235C116.307 5.80413 116.214 6.12705 116.121 6.42033L116.103 6.4024C114.884 5.21445 113.803 3.36351 113.254 2.01411C111.272 -2.86089 110.528 -8.12667 109.622 -14.5461C109.519 -15.2707 109.415 -16.0101 109.307 -16.7652C108.299 -23.7782 106.929 -32.0493 102.576 -39.7221C98.7315 -46.4995 91.2825 -54.8705 79.237 -54.8705C71.4767 -54.8705 65.502 -50.7443 61.4663 -46.4746C57.4168 -42.1893 54.5928 -37.0389 52.9228 -33.0313C46.9502 -18.7003 48.094 -3.03249 49.0257 9.7291L49.0258 9.72987C49.0794 10.4646 49.1323 11.19 49.1832 11.9045C50.2863 27.4148 56.1281 42.3682 61.3105 55.6344L61.3111 55.636C61.7491 56.7569 62.1824 57.866 62.6077 58.9627L65.4286 66.2346L79.9725 60.5929L77.1517 53.321C76.7729 52.3444 76.3947 51.3733 76.0184 50.4061C70.657 36.6376 65.671 23.8331 64.7438 10.7977L64.6756 9.83985C63.6906 -3.96848 62.8168 -16.2192 67.3224 -27.0307C68.5038 -29.8653 70.4187 -33.2349 72.8043 -35.7589C75.2038 -38.2986 77.3606 -39.2705 79.237 -39.2705C83.0426 -39.2705 86.335 -36.7363 89.0072 -32.0243C91.7645 -27.1641 92.8589 -21.5505 93.8651 -14.5468C93.9688 -13.8238 94.0718 -13.0804 94.1779 -12.3199C95.032 -6.17043 96.0421 1.10073 98.8033 7.89141C99.9031 10.5949 102.029 14.4676 105.211 17.5712C108.407 20.6881 113.897 24.0819 120.834 22.2715C126.443 20.8082 129.008 16.1165 130.106 13.5409C131.073 11.2743 131.699 8.65192 131.999 7.39221C132.055 7.159 132.1 6.97258 132.133 6.8431C133.697 0.820717 135.045 -5.30931 136.203 -11.3496C138.17 -21.6129 140.416 -31.2607 143.409 -41.2065C144.787 -45.7843 147.469 -49.8387 151.401 -52.3722Z" fill="#212427"/>
<path fill-rule="evenodd" clip-rule="evenodd" d="M259.226 118.997L259.431 118.977C275.038 117.399 285.314 116.361 296.207 123.281C299.513 125.38 302.359 129.151 304.402 134.17C306.427 139.145 307.409 144.752 307.409 149.63C307.409 157.378 302.714 165.939 296.093 171.614C290.411 176.484 285.596 179.342 281.301 180.169C277.574 180.887 273.33 180.257 267.927 175.778C267.296 175.254 266.676 174.747 266.07 174.251C262.704 171.492 259.77 169.088 257.691 166.347C255.568 163.547 255.249 161.629 256.151 159.374C257.081 157.048 259.444 154.183 262.914 151.791C266.375 149.406 269.976 148.158 272.588 148.064C274.7 147.989 276.889 148.124 278.573 148.59C279.676 148.895 280.084 149.196 280.191 149.296L283.641 156.194L297.594 149.218L294.106 142.242C291.456 136.942 286.518 134.601 282.729 133.553C278.864 132.485 274.885 132.373 272.031 132.474C265.654 132.702 259.221 135.391 254.062 138.945C248.913 142.494 244.07 147.571 241.667 153.58C238.066 162.582 241.081 170.261 245.261 175.773C248.572 180.139 253.198 183.9 256.485 186.572L256.486 186.574C257.021 187.008 257.519 187.413 257.971 187.788C266.46 194.825 275.337 197.205 284.253 195.488C292.601 193.879 299.95 188.854 306.246 183.458C315.357 175.648 323.009 163.068 323.009 149.63C323.009 142.869 321.685 135.251 318.851 128.289C316.036 121.372 311.472 114.496 304.571 110.112C289.054 100.257 273.809 101.821 259.531 103.285L258.29 103.412C258.079 103.434 257.868 103.455 257.659 103.476C242.407 105.016 229.064 110.06 217.132 120.314C207.616 128.492 198.807 137.197 193.972 150.941L191.383 158.299L206.098 163.476L208.687 156.119C212.114 146.378 218.289 139.888 227.299 132.145C236.5 124.239 246.718 120.26 259.226 118.997ZM280.224 149.33C280.223 149.33 280.218 149.325 280.209 149.312C280.22 149.323 280.224 149.33 280.224 149.33Z" fill="#212427"/>
<path d="M48.2773 83.3298H56.0773C75.0603 83.3298 88.7215 94.6734 96.6619 109.451C99.778 115.251 101.959 121.761 103.829 127.972C104.449 130.032 105.031 132.036 105.599 134C106.819 138.209 107.986 142.235 109.379 146.242C113.423 157.87 118.356 166.057 127.37 169.939L134.533 173.025L128.362 187.352L121.198 184.267C105.912 177.682 99.0479 164.03 94.6441 151.365C93.1129 146.961 91.7542 142.276 90.4781 137.874L90.4765 137.87V137.868V137.867L90.4734 137.859C89.9344 135.998 89.4095 134.187 88.8923 132.471C87.0702 126.423 85.2528 121.176 82.9199 116.835C76.921 105.671 67.8422 98.9298 56.0773 98.9298H48.2773V83.3298Z" fill="#212427"/>
<path d="M122.58 96.1702L126.748 102.762C133.726 113.796 142.14 120.769 154.423 127.504C156.767 128.791 160.385 129.133 163.984 128.244L171.557 126.373L175.298 141.519L167.725 143.388C161.459 144.937 153.598 144.844 146.922 141.182C132.992 133.544 122.311 124.933 113.564 111.1L109.395 104.508L122.58 96.1702Z" fill="#212427"/>
<path d="M23.6859 5.87741L19.5174 -0.715149L6.33203 7.62227L10.5006 14.2148C13.8096 19.4486 15.0589 24.7776 16.5954 31.3319C16.9225 32.7266 17.2625 34.1774 17.6381 35.6945C19.8269 44.5319 20.4636 50.7875 16.5512 56.4745L12.1304 62.9009L24.9829 71.7422L29.4037 65.3165C37.5588 53.4613 34.9937 40.8799 32.7806 31.9442C32.5092 30.8483 32.2408 29.6799 31.9591 28.4537C30.4395 21.8385 28.5345 13.5456 23.6859 5.87741Z" fill="#212427"/>
</svg>
