<svg xmlns="http://www.w3.org/2000/svg" width="190" height="190" viewBox="0 0 190 190" fill="none">
  <path d="M22.4576 0H0V3.90919C1.46028 3.22805 2.69982 2.8632 4.04628 2.8632C8.74732 2.8632 12.9226 4.15128 17.4574 6.41868C19.2019 7.29092 20.7809 8.20936 22.4699 9.1918L22.4703 9.192L22.4708 9.19236C23.3638 9.7118 24.2876 10.2491 25.2828 10.8069C28.0254 12.3442 31.0544 13.876 34.534 14.8832C38.2379 15.9554 42.8616 15.775 46.862 14.4015C50.8476 13.033 55.044 10.1543 56.4524 5.14616C56.9232 3.4717 57.0348 1.71732 56.902 0H48.8596C49.0192 1.17449 48.9704 2.20063 48.7512 2.98021C48.322 4.50608 46.878 5.93756 44.264 6.83512C41.6644 7.72768 38.7292 7.7692 36.7585 7.19872C34.1517 6.44412 31.7469 5.25908 29.1943 3.82834C28.4324 3.4013 27.6249 2.93226 26.7864 2.44528L26.786 2.445L26.7846 2.44421C25.4041 1.64236 23.9399 0.791868 22.4576 0Z" fill="#212427"/>
  <path d="M81.2109 0C82.2353 1.46734 83.3341 2.7628 84.3517 3.82737C86.3213 5.88824 88.7181 6.74596 91.1641 6.68912C93.3889 6.63744 95.4481 5.83608 97.0633 5.063C98.2361 4.5016 99.4773 3.79672 100.535 3.19612C100.911 2.98233 101.265 2.78168 101.583 2.6055C102.992 1.8261 103.885 1.42563 104.485 1.29164C106.472 0.84732 108.73 0.617032 110.595 0.91802C112.399 1.20926 113.301 1.87694 113.764 2.81032C116.883 9.1066 121.979 15.8782 130.203 18.2221C136.197 19.9303 141.78 17.6779 145.895 15.2134C147.853 14.0407 149.472 12.7216 150.89 11.5187C151.174 11.2776 151.447 11.0441 151.713 10.817L151.717 10.8139C152.827 9.86372 153.806 9.02696 154.911 8.2268L158.152 5.8814L153.895 0H152.633L150.221 1.74636C148.826 2.75567 147.549 3.84888 146.423 4.81308C146.18 5.02132 145.944 5.22352 145.715 5.4176C144.37 6.55848 143.159 7.52724 141.785 8.3502C138.321 10.4246 135.186 11.3236 132.396 10.5285C127.607 9.16368 124 5.15296 121.309 0H81.2109Z" fill="#212427"/>
  <path d="M168.961 0C169.896 1.95067 171.171 3.75613 172.831 5.30188C175.489 7.77656 179.534 8.58744 182.687 8.79844C186.001 9.02028 189.592 8.65644 192.174 7.74724C194.177 7.0422 196.147 5.9598 197.709 5.10236C198.211 4.82652 198.671 4.57396 199.076 4.36476C199.395 4.2 199.702 4.048 199.999 3.90914V0H190.055C189.88 0.0695856 189.701 0.136694 189.517 0.201367C188.227 0.655748 185.779 0.987508 183.221 0.816292C181.422 0.695908 180.086 0.361859 179.226 0H168.961Z" fill="#212427"/>
  <path d="M199.998 21.3862C196.173 18.9977 191.006 17.5847 186.235 18.1091C181.915 18.5839 178.14 21.1001 175.477 23.8298C172.849 26.5225 170.671 30.0727 170.18 33.4411C169.353 39.1136 170.828 46.8796 176.855 51.516C180.138 54.0416 184.194 55.2408 187.611 56.1512C188.203 56.3088 188.776 56.458 189.332 56.6032H189.333C192.26 57.366 194.718 58.0064 196.857 59.062C198.247 59.748 199.267 60.5464 199.998 61.3804V51.6956C197.15 50.3568 193.928 49.5244 191.158 48.8088C190.645 48.6764 190.147 48.5476 189.67 48.4208C186.213 47.5 183.607 46.6176 181.733 45.1752C178.712 42.8512 177.539 38.4193 178.096 34.5961C178.259 33.4777 179.267 31.3998 181.202 29.4169C183.101 27.4708 185.266 26.2637 187.109 26.0612C190.393 25.7002 194.341 26.9724 196.686 28.8184C196.841 28.9399 197.085 29.2177 197.38 29.8801C197.625 30.4307 197.795 30.9667 198.017 31.6687V31.6694C198.087 31.889 198.161 32.1249 198.245 32.3826L199.481 36.1867L199.998 36.0187V21.3862Z" fill="#212427"/>
  <path d="M199.999 70.6928C199.095 71.942 197.806 73.2036 196.201 74.2016C193.539 75.8572 190.453 76.5164 187.423 75.5484C185.068 74.7968 184.26 73.506 183.935 72.0296C183.539 70.2344 183.865 67.8996 184.63 65.6924L185.94 61.9128L178.381 59.2928L177.071 63.0724C176.058 65.9956 175.283 69.9428 176.122 73.75C177.031 77.876 179.789 81.5084 184.989 83.1692C190.539 84.942 195.873 83.6864 199.999 81.2536V70.6928Z" fill="#212427"/>
  <path d="M200 124.323C199.355 122.852 198.932 121.168 198.932 119.834C198.932 119.252 199.021 118.62 199.181 117.702C199.196 117.617 199.212 117.528 199.228 117.435L199.235 117.394C199.376 116.597 199.562 115.549 199.632 114.479C199.907 110.245 199.36 105.976 196.689 102.006C195.137 99.6992 192.693 96.8732 188.992 95.874C186.165 95.1112 183.024 95.5344 181.08 95.7964L181.076 95.7968C180.866 95.8252 180.671 95.8516 180.491 95.874C177.861 96.2072 175.664 96.1996 173.569 95.5804C171.495 94.968 169.931 93.6096 169.188 91.248C167.881 87.0936 164.478 81.6576 158.582 80.876C154.358 80.3168 150.436 82.47 147.808 85.1004C145.133 87.7776 143.047 91.668 143.047 95.8648C143.047 100.265 144.502 104.872 146.286 108.523C147.191 110.377 148.236 112.097 149.332 113.519C150.364 114.859 151.682 116.254 153.223 117.076C155.27 118.168 157.376 118.728 159.262 119.098C160.206 119.283 161.141 119.428 161.998 119.558L162.295 119.604C163.058 119.719 163.754 119.824 164.437 119.948C166.678 120.351 168.884 121.004 171.038 121.897C174.794 123.453 177.234 126.766 178.022 132.003C178.06 140.458 179.74 146.585 182.689 151.338C185.649 156.11 189.654 159.099 193.432 161.6C194.806 162.51 196.573 163.078 198.211 163.418C198.786 163.538 199.385 163.638 200 163.715V155.618C199.946 155.608 199.893 155.597 199.84 155.586C198.654 155.339 198.012 155.038 197.848 154.929C194.312 152.588 191.507 150.377 189.487 147.121C187.49 143.902 186.022 139.259 186.022 131.712V131.436L185.984 131.162C184.948 123.687 181.149 117.427 174.1 114.506C171.436 113.402 168.68 112.582 165.854 112.074C165.053 111.93 164.242 111.807 163.491 111.694L163.199 111.649C162.344 111.519 161.56 111.396 160.801 111.248C159.282 110.95 158.045 110.58 156.988 110.017C156.989 110.018 156.99 110.018 156.989 110.017L156.988 110.017L156.987 110.016C156.969 110.004 156.836 109.92 156.6 109.694C156.341 109.448 156.025 109.099 155.669 108.637C154.954 107.709 154.184 106.465 153.474 105.012C152.026 102.047 151.047 98.6644 151.047 95.8648C151.047 94.2696 151.913 92.3104 153.467 90.7548C155.068 89.1524 156.65 88.6904 157.531 88.8068C158.762 88.97 160.582 90.5492 161.557 93.6488C163.149 98.7092 166.838 101.934 171.302 103.253C174.898 104.315 178.34 104.21 181.496 103.811L181.772 103.776C184.176 103.471 185.714 103.276 186.908 103.598C187.779 103.833 188.837 104.667 190.052 106.472C191.402 108.48 191.855 110.785 191.648 113.96C191.61 114.561 191.506 115.151 191.357 115.999C191.339 116.105 191.32 116.215 191.3 116.33C191.136 117.267 190.932 118.497 190.932 119.834C190.932 122.664 191.776 125.563 192.786 127.787C194.235 130.975 197.249 133.116 199.439 134.175C199.624 134.265 199.812 134.365 200 134.474V124.323Z" fill="#212427"/>
  <path d="M200.002 173.607C199.224 173.309 198.348 172.928 197.339 172.45C194.933 171.31 191.751 169.977 188.381 169.327C185.03 168.68 181.043 168.624 177.397 170.587C171.438 173.796 168.048 180.383 167.142 186.759C166.525 191.1 166.985 195.875 168.963 200H179.225C178.787 199.815 178.473 199.623 178.285 199.448C175.606 196.954 174.395 192.582 175.063 187.884C175.733 183.167 178.135 179.276 181.189 177.631C182.575 176.885 184.457 176.717 186.865 177.182C189.254 177.642 191.723 178.642 193.914 179.68C195.987 180.662 197.977 181.489 200.002 181.99V173.607Z" fill="#212427"/>
  <path d="M121.309 200C121.181 199.756 121.056 199.509 120.933 199.26C118.928 195.214 115.199 193.559 111.87 193.021C108.601 192.494 105.225 192.93 102.739 193.486C100.897 193.897 99.1039 194.836 97.7111 195.606C97.2187 195.878 96.7635 196.137 96.3307 196.383L96.3267 196.385L96.3251 196.386C95.3639 196.932 94.5127 197.416 93.6095 197.848C92.3223 198.464 91.4951 198.68 90.9787 198.692C90.6835 198.699 90.4847 198.667 90.1355 198.301C87.4239 195.464 85.2811 191.9 85.1871 189.05C85.1583 188.189 85.2883 187.306 85.5183 186.071C85.5415 185.946 85.5663 185.815 85.5923 185.679L85.5927 185.676C85.7995 184.586 86.0667 183.175 86.1315 181.694C86.2883 178.112 85.6835 174.759 84.8159 171.624L83.7495 167.769L76.0391 169.902L77.1055 173.757C77.8411 176.415 78.2467 178.884 78.1391 181.344C78.1011 182.217 77.9451 183.049 77.7279 184.21L77.7271 184.213C77.7031 184.34 77.6787 184.471 77.6535 184.606C77.4171 185.876 77.1315 187.508 77.1911 189.315C77.3219 193.26 79.1095 196.991 81.2103 200H121.309Z" fill="#212427"/>
  <path d="M56.9016 200C56.7744 198.361 56.4244 196.756 55.9512 195.286C54.9744 192.251 53.3056 189.267 51.186 187.148C50.212 186.174 48.9432 185.083 47.8488 184.142C47.2616 183.638 46.7244 183.176 46.3104 182.798C44.87 181.487 43.8564 180.341 43.224 179.076C42.9448 178.518 42.8324 177.8 42.8316 176.318C42.8316 176.143 42.834 175.949 42.8364 175.737C42.852 174.451 42.8748 172.531 42.4156 170.695C41.858 168.463 40.54 166.098 39.037 164.176C37.5684 162.298 35.473 160.267 32.999 159.311C30.2062 158.232 27.2378 158.805 25.0953 159.589C22.8669 160.404 20.7147 161.74 19.2178 163.236C18.0033 164.451 16.7246 165.99 15.6045 167.338C15.0621 167.991 14.5567 168.599 14.114 169.104C12.5404 170.898 11.1736 172.149 9.69644 172.868C6.92704 174.215 5.19888 174.568 3.70079 174.498C2.65341 174.448 1.50938 174.184 0 173.607V181.99C1.0914 182.26 2.1932 182.435 3.32408 182.488C6.64308 182.645 9.7472 181.74 13.1962 180.062C16.1429 178.628 18.3641 176.391 20.1285 174.379C20.9031 173.496 21.5497 172.713 22.1469 171.989C23.0771 170.862 23.8874 169.88 24.8747 168.893C25.4546 168.313 26.576 167.566 27.8429 167.102C29.1957 166.607 29.9446 166.708 30.1158 166.774C30.648 166.979 31.6584 167.727 32.7357 169.104C33.7783 170.438 34.4465 171.802 34.6546 172.635C34.8442 173.394 34.8406 174.138 34.8343 175.441V175.441C34.833 175.709 34.8316 176.001 34.8317 176.321C34.8323 177.948 34.8937 180.304 36.0686 182.654C37.3572 185.231 39.2256 187.167 40.9236 188.713C41.752 189.468 42.4456 190.057 43.08 190.597C43.9408 191.329 44.6936 191.969 45.5288 192.804C46.5748 193.85 47.6644 195.65 48.336 197.737C48.5916 198.531 48.7636 199.292 48.8596 200H56.9016Z" fill="#212427"/>
  <path d="M0 163.715C1.22356 163.869 2.51051 163.934 3.79161 163.89C5.69576 163.824 7.76736 163.508 9.65628 162.742C11.5484 161.974 13.5327 160.632 14.705 158.371C17.1562 153.644 16.943 149.635 16.7246 145.53L16.7238 145.516C16.3946 139.325 13.7156 135.27 9.66624 131.842C9.5134 131.713 9.35312 131.576 9.18596 131.434L9.18552 131.434C7.57084 130.056 5.31352 128.131 2.92291 126.974C1.58259 126.326 0.433404 125.279 0.0690796 124.477C0.0457812 124.426 0.0227519 124.374 0 124.323V134.474C1.24774 135.194 2.57028 136.315 4.1528 137.656L4.159 137.662C4.27052 137.756 4.38332 137.852 4.49752 137.948C7.24488 140.274 8.54704 142.404 8.73512 145.94C8.95324 150.041 8.9636 152.065 7.60308 154.688C7.57832 154.736 7.40924 155.02 6.6486 155.328C5.88472 155.638 4.80408 155.85 3.51345 155.895C2.30518 155.937 1.07028 155.827 0 155.618V163.715Z" fill="#212427"/>
  <path d="M0 81.2532C0.143352 81.1684 0.285248 81.0824 0.425644 80.9952C4.5194 78.4496 7.78904 74.4892 8.997 70.4068C10.0223 66.9416 9.934 63.2644 8.44512 59.896C6.952 56.5176 4.18716 53.758 0.398349 51.888C0.266444 51.8228 0.133633 51.7588 0 51.696V61.3812C0.503096 61.9552 0.870036 62.5464 1.12802 63.13C1.76544 64.572 1.87553 66.2788 1.32576 68.1368C1.09539 68.9156 0.645328 69.8004 0 70.6916V81.2532Z" fill="#212427"/>
  <path d="M0 36.0185L7.09064 33.7144L5.85444 29.9102C5.8142 29.7863 5.76864 29.6413 5.71792 29.4798L5.71776 29.4792C5.48356 28.7334 5.13856 27.6349 4.68856 26.6247C4.11396 25.3349 3.20264 23.7661 1.63563 22.5325C1.125 22.1305 0.577796 21.7475 0 21.3867V36.0185Z" fill="#212427"/>
  <path d="M77.6398 57.4836C78.3906 57 79.9614 56.856 82.3646 57.3988C86.4822 58.3284 88.3914 60.4796 88.6182 62.6512C88.8438 64.8064 88.8254 66.9928 88.8046 69.4536L88.8026 69.6968C88.7822 72.1752 88.7678 74.9312 89.1202 77.7324C89.6478 81.9288 90.693 88.4724 97.7994 91.3996C99.3998 92.0592 101.632 92.5144 103.67 92.7204C105.615 92.9172 108.175 92.9736 110.203 92.2996C114.245 90.9552 116.103 87.6516 117.047 84.9932C117.523 83.654 117.835 82.3 118.073 81.1756C118.145 80.8352 118.209 80.5264 118.268 80.2424C118.422 79.4968 118.541 78.9212 118.685 78.3932C119.395 75.7912 120.763 72.084 122.758 69.6496C123.725 68.4696 124.63 67.8472 125.421 67.6024C126.103 67.3916 127.11 67.3292 128.682 68.1048C131.242 69.3688 132.725 71.6176 133.299 74.3976C133.891 77.262 133.446 80.4724 132.265 82.988C128.605 90.7872 119.751 94.9512 108.883 97.156C104.413 98.0632 99.9766 98.5712 95.3518 99.1004H95.3514C93.1194 99.356 90.8438 99.6164 88.4994 99.9292C84.8106 100.421 80.4914 101.092 76.4658 102.432C72.449 103.768 68.351 105.887 65.439 109.527C63.3422 112.149 62.335 115.232 62.8906 118.486C63.4234 121.604 65.2906 124.28 67.7086 126.472C70.0726 128.616 73.483 129.658 76.6746 130.218C80.0074 130.804 83.7878 130.975 87.4838 130.91C94.8458 130.779 102.471 129.694 106.628 128.609C112.462 127.087 129.776 123.435 135.6 122.774L139.575 122.324L138.673 114.375L134.699 114.826C128.329 115.548 110.599 119.305 104.609 120.868C101.171 121.765 94.1894 122.79 87.3418 122.911C83.9326 122.972 80.707 122.804 78.059 122.339C75.2694 121.849 73.7234 121.127 73.0822 120.546C71.4666 119.081 70.907 117.904 70.7766 117.139C70.669 116.509 70.7622 115.68 71.6862 114.525C73.2522 112.567 75.7254 111.109 78.9906 110.023C82.247 108.94 85.9218 108.344 89.5574 107.859C91.5818 107.589 93.6858 107.347 95.8322 107.101H95.8334H95.8342C100.643 106.549 105.665 105.972 110.474 104.996C121.818 102.694 134.128 97.8476 139.507 86.3868C141.387 82.3812 142.091 77.4148 141.134 72.7792C140.159 68.0588 137.395 63.484 132.223 60.9312C129.075 59.3776 125.957 59.064 123.06 59.9588C120.272 60.8204 118.142 62.6604 116.57 64.5792C113.487 68.342 111.762 73.3748 110.967 76.2872C110.751 77.0804 110.558 78.014 110.389 78.834L110.389 78.8368C110.34 79.0744 110.293 79.3024 110.247 79.5148C110.024 80.5692 109.8 81.4956 109.509 82.314C108.92 83.9724 108.313 84.4972 107.678 84.708C107.333 84.8232 106.191 84.9348 104.475 84.7612C102.852 84.5968 101.462 84.2564 100.846 84.0028C98.3006 82.954 97.5902 80.9708 97.0574 76.734C96.781 74.5356 96.7814 72.2864 96.8022 69.7628L96.8058 69.376C96.8258 67.0332 96.8486 64.436 96.575 61.8192C95.8438 54.8268 89.9602 50.912 84.1266 49.5952C81.4414 48.9888 76.9818 48.3916 73.3074 50.7584C69.3778 53.2896 67.0174 57.1264 65.8806 60.9044C64.2494 66.3252 63.0366 71.548 61.989 77.0152C61.4226 79.9704 60.7678 82.9436 60.0154 85.84C59.9678 86.0236 59.9182 86.2292 59.8746 86.408L59.8494 86.5128C59.7962 86.7304 59.7458 86.9344 59.6914 87.1372C59.643 87.3176 59.595 87.4832 59.5474 87.6336L59.5382 87.6244C58.913 87.0152 58.359 86.066 58.0774 85.374C57.0606 82.874 56.6794 80.1736 56.2146 76.8816C56.1618 76.51 56.1086 76.1308 56.053 75.7436C55.5362 72.1472 54.8338 67.9056 52.6014 63.9708C50.6298 60.4952 46.8098 56.2024 40.6326 56.2024C36.653 56.2024 33.5891 58.3184 31.5195 60.508C29.4428 62.7056 27.9946 65.3468 27.1382 67.402C24.0753 74.7512 24.6619 82.786 25.1397 89.3304L25.1397 89.3308C25.1672 89.7076 25.1944 90.0796 25.2204 90.446C25.7862 98.4 28.782 106.068 31.4396 112.872L31.4399 112.872C31.6645 113.447 31.8867 114.016 32.1048 114.578L33.5514 118.308L41.0098 115.414L39.5633 111.685C39.369 111.184 39.1751 110.686 38.9821 110.19C36.2326 103.13 33.6757 96.5632 33.2003 89.8784L33.1653 89.3872C32.6602 82.306 32.212 76.0236 34.5226 70.4792C35.1284 69.0256 36.1104 67.2976 37.3338 66.0032C38.5644 64.7008 39.6704 64.2024 40.6326 64.2024C42.5842 64.2024 44.2726 65.502 45.643 67.9184C47.057 70.4108 47.6182 73.2896 48.1342 76.8812C48.1874 77.252 48.2402 77.6332 48.2946 78.0232C48.7326 81.1768 49.2506 84.9056 50.6666 88.388C51.2306 89.7744 52.321 91.7604 53.9526 93.352C55.5918 94.9504 58.407 96.6908 61.9646 95.7624C64.841 95.012 66.1562 92.606 66.7194 91.2852C67.2154 90.1228 67.5362 88.778 67.6902 88.132C67.719 88.0124 67.7418 87.9168 67.759 87.8504C68.5606 84.762 69.2522 81.6184 69.8458 78.5208C70.8546 73.2576 72.0066 68.31 73.5414 63.2096C74.2478 60.862 75.6234 58.7828 77.6398 57.4836Z" fill="#212427"/>
  <path d="M131.898 36.4954L135 29.121L138.687 30.6717C151.055 35.8731 163.877 48.0836 161.644 64.3804L161.1 68.3432L153.175 67.2572L153.718 63.2944C155.226 52.284 146.518 42.6436 135.586 38.0461L131.898 36.4954Z" fill="#212427"/>
  <path fill-rule="evenodd" clip-rule="evenodd" d="M132.936 145.365L133.041 145.355C141.045 144.546 146.314 144.014 151.901 147.562C153.596 148.639 155.055 150.572 156.103 153.146C157.142 155.698 157.645 158.573 157.645 161.074C157.645 165.048 155.237 169.438 151.842 172.348C148.928 174.846 146.459 176.311 144.257 176.736C142.345 177.104 140.169 176.781 137.398 174.484C137.074 174.215 136.757 173.955 136.446 173.7C134.72 172.286 133.215 171.053 132.149 169.647C131.06 168.212 130.897 167.228 131.359 166.071C131.836 164.879 133.048 163.409 134.827 162.183C136.602 160.96 138.449 160.32 139.788 160.272C140.871 160.233 141.994 160.302 142.857 160.541C143.423 160.698 143.632 160.852 143.687 160.903L145.457 164.441L152.612 160.863L150.823 157.286C149.464 154.568 146.932 153.367 144.989 152.83C143.007 152.282 140.966 152.225 139.503 152.277C136.232 152.394 132.933 153.772 130.288 155.595C127.647 157.415 125.164 160.019 123.931 163.1C122.085 167.716 123.631 171.654 125.774 174.481C127.472 176.72 129.845 178.649 131.53 180.019L131.531 180.02C131.805 180.243 132.061 180.45 132.293 180.643C136.646 184.251 141.198 185.472 145.77 184.591C150.051 183.766 153.82 181.19 157.049 178.422C161.721 174.417 165.645 167.966 165.645 161.074C165.645 157.607 164.966 153.7 163.513 150.13C162.069 146.583 159.729 143.057 156.19 140.809C148.233 135.755 140.414 136.557 133.092 137.308L132.456 137.373C132.348 137.384 132.24 137.395 132.132 137.406C124.311 138.196 117.468 140.782 111.349 146.041C106.469 150.234 101.952 154.699 99.4721 161.747L98.1445 165.52L105.691 168.175L107.019 164.402C108.776 159.407 111.943 156.079 116.563 152.108C121.281 148.054 126.521 146.013 132.936 145.365ZM143.704 160.921C143.704 160.921 143.701 160.918 143.697 160.912C143.702 160.917 143.704 160.92 143.704 160.921Z" fill="#212427"/>
  <path d="M24.7578 127.074H28.7578C38.4927 127.074 45.4984 132.892 49.5704 140.47C51.1684 143.444 52.2868 146.783 53.246 149.968C53.564 151.024 53.862 152.052 54.1536 153.059C54.7792 155.218 55.3776 157.282 56.092 159.337C58.1656 165.3 60.6956 169.498 65.318 171.49L68.9916 173.072L65.8268 180.419L62.1532 178.837C54.314 175.46 50.794 168.459 48.5356 161.964C47.7504 159.706 47.0536 157.303 46.3992 155.046L46.3984 155.044V155.043V155.042L46.3968 155.038C46.1204 154.084 45.8512 153.155 45.586 152.275C44.6516 149.173 43.7196 146.483 42.5232 144.256C39.4469 138.531 34.7911 135.074 28.7578 135.074H24.7578V127.074Z" fill="#212427"/>
  <path fill-rule="evenodd" clip-rule="evenodd" d="M62.9693 33.4934C58.5165 28.8787 53.3749 23.8095 45.6153 21.8781C41.8765 20.9474 36.6739 19.6828 31.5062 21.4706C26.6752 23.1418 23.7196 26.4585 21.6473 29.9246C20.6294 31.6272 19.7938 33.416 19.0528 35.0892C18.8022 35.6553 18.5671 36.1964 18.3391 36.7214L18.3388 36.7221L18.3384 36.723L18.338 36.7238L18.3376 36.7249L18.3359 36.7288C17.8599 37.8248 17.4142 38.8508 16.9204 39.8877C15.6685 42.5164 14.2618 46.7732 17.1955 50.9192C18.4012 52.6228 20.2384 53.6516 21.8156 54.19C23.4033 54.732 25.4327 55.0188 27.3626 54.4968C30.2246 53.7228 32.9847 51.4828 34.4372 50.162C35.515 49.1816 36.2088 47.9736 36.5865 47.316L36.6247 47.2492L36.6564 47.1944C37.1288 46.3768 37.2794 46.1776 37.3943 46.0712C37.8872 45.616 38.3969 45.4504 39.4208 45.6796C40.6337 45.9512 42.0841 46.716 43.6585 47.7676C43.9085 47.9344 44.1853 48.1456 44.6141 48.472L44.7097 48.5448C45.1445 48.8756 45.7105 49.304 46.3245 49.7008C47.4625 50.436 49.4121 51.5048 51.8081 51.2976C55.2841 50.9968 58.9961 49.3032 61.4873 46.7904C62.8169 45.45 64.0569 43.4592 64.6477 41.318C65.2289 39.2116 65.3881 36.0002 62.9693 33.4934ZM43.6833 29.6412C48.9145 30.9434 52.6225 34.3056 57.0073 38.8364C56.9973 38.9258 56.9761 39.0442 56.9357 39.1902C56.8445 39.5218 56.6793 39.9075 56.4529 40.2916C56.2253 40.678 55.9857 40.9772 55.8065 41.158C54.7181 42.2556 52.8725 43.1308 51.2693 43.312C51.1849 43.2788 50.9925 43.192 50.6657 42.9808C50.3393 42.7704 49.9945 42.5136 49.5553 42.1792L49.4289 42.0828C49.0533 41.7964 48.5725 41.4296 48.1021 41.1152C46.3305 39.9318 43.8733 38.4786 41.1689 37.873C38.2755 37.225 34.8583 37.5229 31.9657 40.1952C30.8744 41.2032 30.1786 42.412 29.7896 43.088C29.7688 43.124 29.749 43.1584 29.73 43.1912C29.5026 43.5848 29.3669 43.816 29.2326 44.0132C29.1116 44.1908 29.0547 44.2436 29.0547 44.2436C27.6968 45.4784 26.1684 46.5212 25.2969 46.768C25.2802 46.7696 25.2103 46.7764 25.082 46.7664C24.8908 46.7516 24.6513 46.7048 24.3999 46.6192C24.1477 46.5328 23.9428 46.428 23.8037 46.3352C23.7478 46.298 23.7135 46.27 23.6962 46.2552C23.49 45.9488 23.4463 45.7136 23.4686 45.3956C23.5004 44.9436 23.6847 44.29 24.1431 43.3276C24.6976 42.1632 25.2364 40.9236 25.741 39.762L25.7416 39.7606C25.957 39.265 26.1662 38.7836 26.3677 38.3286C27.0758 36.7294 27.7533 35.3017 28.5137 34.0298C29.9983 31.5467 31.661 29.8822 34.1216 29.031C36.746 28.1231 39.701 28.65 43.6833 29.6412Z" fill="#212427"/>
  <path d="M62.8632 133.659L65.0008 137.04C68.5792 142.698 72.8944 146.274 79.1932 149.728C80.3952 150.388 82.2504 150.563 84.0964 150.107L87.98 149.148L89.898 156.915L86.0148 157.874C82.8012 158.668 78.77 158.62 75.3464 156.742C68.2028 152.825 62.7256 148.409 58.2396 141.316L56.1016 137.935L62.8632 133.659Z" fill="#212427"/>
  <path d="M12.1455 87.3552L10.0078 83.9744L3.24609 88.25L5.3838 91.6308C7.08076 94.3148 7.7214 97.0476 8.50936 100.409C8.67708 101.124 8.85144 101.868 9.04408 102.646C10.1665 107.178 10.493 110.386 8.48668 113.302L6.2196 116.598L12.8106 121.132L15.0777 117.837C19.2598 111.757 17.9444 105.305 16.8095 100.723C16.6703 100.161 16.5326 99.5616 16.3882 98.9328C15.6089 95.5404 14.632 91.2876 12.1455 87.3552Z" fill="#212427"/>
  <path d="M93.8372 23.9671C90.3492 22.9366 87.8824 22.2882 85.0056 22.4574C83.5784 22.5414 82.0648 22.9725 80.3204 23.6703C79.4532 24.0171 78.578 24.4091 77.6428 24.8347C77.5108 24.8948 77.3768 24.9558 77.2416 25.0175C76.4448 25.381 75.5956 25.7681 74.7532 26.1251L71.0704 27.6857L67.9492 20.3197L71.632 18.7591C72.3664 18.4481 73.1036 18.1119 73.9048 17.7465C74.044 17.683 74.1852 17.6186 74.3288 17.5533C75.2724 17.1239 76.2948 16.6643 77.3496 16.2424C79.4488 15.4027 81.8768 14.6276 84.5356 14.4712C88.9632 14.2108 92.652 15.2751 96.104 16.2949C100.358 17.5517 103.958 19.1331 107.757 21.3385C109.333 22.2539 110.748 23.0109 112.058 23.4474L115.852 24.7123L113.322 32.3018L109.528 31.0369C107.372 30.3181 105.34 29.1861 103.74 28.2568C100.464 26.3548 97.4484 25.0341 93.8372 23.9671Z" fill="#212427"/>
</svg>
