<svg width="132" height="95" viewBox="0 0 132 95" fill="none" xmlns="http://www.w3.org/2000/svg">
<path d="M126.988 91.7084C125.811 91.7084 124.873 91.4876 124.174 91.0462C123.475 90.6047 122.975 89.9683 122.673 89.1369C122.372 88.3055 122.221 87.3049 122.221 86.135V79.4801C122.221 77.9423 122.662 76.7798 123.545 75.9926C124.428 75.198 125.642 74.8007 127.187 74.8007C130.366 74.8007 131.955 76.3605 131.955 79.4801V80.683C131.955 82.1398 131.94 83.1184 131.911 83.6187H126.172V86.8193C126.172 87.1136 126.19 87.4042 126.227 87.6911C126.264 87.9707 126.345 88.2025 126.47 88.3864C126.602 88.5704 126.812 88.6623 127.099 88.6623C127.511 88.6623 127.768 88.4858 127.871 88.1326C127.974 87.7721 128.026 87.3049 128.026 86.731V85.1417H131.955V86.0798C131.955 87.3159 131.8 88.3533 131.491 89.1921C131.19 90.0235 130.675 90.6526 129.946 91.0793C129.225 91.4987 128.239 91.7084 126.988 91.7084ZM126.15 81.6542H128.026V79.4249C128.026 78.8289 127.952 78.4022 127.805 78.1447C127.658 77.8798 127.437 77.7474 127.143 77.7474C126.827 77.7474 126.58 77.8724 126.403 78.1226C126.234 78.3728 126.15 78.8069 126.15 79.4249V81.6542Z" fill="#212427"/>
<path d="M114.35 91.7084C113.585 91.7084 112.978 91.5686 112.529 91.289C112.081 91.0094 111.746 90.6231 111.525 90.1302C111.304 89.6372 111.157 89.0596 111.084 88.3975C111.017 87.7353 110.984 87.0253 110.984 86.2674V79.0717C110.984 77.7989 111.209 76.7688 111.658 75.9816C112.114 75.1943 112.883 74.8007 113.964 74.8007C114.766 74.8007 115.381 74.9736 115.807 75.3194C116.241 75.6578 116.576 76.1324 116.812 76.7431V72.1078H120.829V91.5318H116.812V89.777C116.591 90.373 116.297 90.8439 115.929 91.1897C115.568 91.5355 115.042 91.7084 114.35 91.7084ZM115.862 88.6182C116.238 88.6182 116.488 88.4674 116.613 88.1657C116.745 87.864 116.812 87.3233 116.812 86.5434V79.5794C116.812 79.1895 116.753 78.8069 116.635 78.4316C116.525 78.049 116.274 77.8577 115.885 77.8577C115.458 77.8577 115.189 78.038 115.079 78.3985C114.969 78.759 114.913 79.1527 114.913 79.5794V86.5434C114.913 87.9266 115.23 88.6182 115.862 88.6182Z" fill="#212427"/>
<path d="M104.673 91.7084C101.377 91.7084 99.7285 89.9977 99.7285 86.5765V79.9326C99.7285 78.3728 100.166 77.1293 101.042 76.2023C101.917 75.2679 103.128 74.8007 104.673 74.8007C106.225 74.8007 107.439 75.2679 108.315 76.2023C109.19 77.1293 109.628 78.3728 109.628 79.9326V86.5765C109.628 89.9977 107.976 91.7084 104.673 91.7084ZM104.673 88.6623C105.004 88.6623 105.239 88.5446 105.379 88.3092C105.526 88.0664 105.6 87.761 105.6 87.3932V79.3035C105.6 78.3397 105.291 77.8577 104.673 77.8577C104.055 77.8577 103.746 78.3397 103.746 79.3035V87.3932C103.746 87.761 103.816 88.0664 103.955 88.3092C104.103 88.5446 104.342 88.6623 104.673 88.6623Z" fill="#212427"/>
<path d="M93.7348 91.7084C91.8807 91.7084 90.5637 91.2338 89.7838 90.2847C89.0113 89.3356 88.625 87.9413 88.625 86.1019V81.0031C88.625 79.6199 88.7721 78.4684 89.0665 77.5487C89.3608 76.629 89.8758 75.9411 90.6115 75.4849C91.3473 75.0287 92.37 74.8007 93.6796 74.8007C94.592 74.8007 95.4087 74.9625 96.1297 75.2863C96.8581 75.61 97.432 76.0846 97.8514 76.71C98.2708 77.3353 98.4805 78.1005 98.4805 79.0055V81.5328H94.4522V79.2152C94.4522 78.8326 94.397 78.5126 94.2867 78.255C94.1763 77.9902 93.9372 77.8577 93.5693 77.8577C92.9218 77.8577 92.5981 78.3176 92.5981 79.2373V87.2607C92.5981 87.5992 92.6717 87.9119 92.8188 88.1988C92.966 88.4784 93.2088 88.6182 93.5472 88.6182C93.893 88.6182 94.1321 88.4821 94.2646 88.2098C94.4044 87.9303 94.4743 87.6065 94.4743 87.2386V84.4575H98.4805V87.349C98.4805 88.2613 98.2745 89.0449 97.8624 89.6998C97.4578 90.3472 96.8986 90.8439 96.1849 91.1897C95.4712 91.5355 94.6545 91.7084 93.7348 91.7084Z" fill="#212427"/>
<path d="M78.0187 94.2908V91.7856H79.9169C80.2039 91.7856 80.3474 91.6862 80.3474 91.4876C80.3474 91.3846 80.3363 91.2779 80.3142 91.1675L77.7207 74.9772H81.5062L82.6098 87.1613L83.9121 74.9772H87.7197L84.6515 92.3926C84.5412 93.018 84.3278 93.4888 84.0114 93.8052C83.7024 94.1289 83.1911 94.2908 82.4774 94.2908H78.0187Z" fill="#212427"/>
<path d="M74.8296 91.7084C73.7628 91.7084 73.0417 91.484 72.6665 91.0352C72.2986 90.579 72.1147 89.8837 72.1147 88.9493V78.6303H71V75.6174H72.1147V72.1078H75.9553V75.6174H77.07V78.6303H75.9553V88.0222C75.9553 88.2945 75.9995 88.4858 76.0878 88.5961C76.1761 88.7065 76.3453 88.7617 76.5954 88.7617C76.772 88.7617 76.9302 88.7469 77.07 88.7175V91.4104C76.9817 91.4398 76.7058 91.495 76.2423 91.5759C75.7788 91.6642 75.3079 91.7084 74.8296 91.7084Z" fill="#212427"/>
<path d="M63.3411 91.7083C62.4582 91.7083 61.7813 91.5244 61.3104 91.1565C60.8469 90.7886 60.5305 90.2773 60.3613 89.6224C60.192 88.9602 60.1074 88.1877 60.1074 87.3048V74.9772H64.0805V86.8413C64.0805 87.5034 64.132 87.967 64.235 88.2318C64.338 88.4894 64.5808 88.6181 64.9634 88.6181C65.3754 88.6181 65.633 88.4342 65.736 88.0663C65.8463 87.6984 65.9015 87.2239 65.9015 86.6426V74.9772H69.8415V91.5317H65.8905V89.7659C65.6403 90.3987 65.3387 90.8806 64.9855 91.2117C64.6397 91.5428 64.0916 91.7083 63.3411 91.7083Z" fill="#212427"/>
<path d="M52.2379 91.7084C51.3182 91.7084 50.6155 91.495 50.1299 91.0683C49.6517 90.6415 49.3243 90.0566 49.1477 89.3135C48.9711 88.5704 48.8828 87.7279 48.8828 86.7862C48.8828 85.7782 48.9821 84.9541 49.1808 84.314C49.3794 83.6665 49.7179 83.1368 50.1961 82.7248C50.6817 82.3127 51.3476 81.9633 52.1937 81.6763L54.6438 80.8376V79.138C54.6438 78.2477 54.3532 77.8026 53.7719 77.8026C53.2422 77.8026 52.9773 78.1631 52.9773 78.8841V79.8774H49.1367C49.1293 79.8185 49.1256 79.745 49.1256 79.6567C49.1256 79.561 49.1256 79.4543 49.1256 79.3366C49.1256 77.6885 49.5119 76.5223 50.2844 75.8381C51.0643 75.1465 52.2967 74.8007 53.9816 74.8007C54.8645 74.8007 55.6555 74.9588 56.3544 75.2752C57.0534 75.5842 57.6052 76.0441 58.0099 76.6548C58.4219 77.2654 58.6279 78.0196 58.6279 78.9172V91.5318H54.699V89.5673C54.5077 90.2589 54.1913 90.7887 53.7498 91.1566C53.3084 91.5244 52.8044 91.7084 52.2379 91.7084ZM53.794 88.6403C54.1177 88.6403 54.3385 88.5041 54.4562 88.2319C54.5739 87.9597 54.6328 87.6654 54.6328 87.349V82.7358C54.0883 82.9565 53.6652 83.2361 53.3636 83.5746C53.0619 83.9057 52.9111 84.3949 52.9111 85.0424V87.1724C52.9111 88.151 53.2054 88.6403 53.794 88.6403Z" fill="#212427"/>
<path d="M42.8244 91.7084C41.6471 91.7084 40.709 91.4876 40.0101 91.0462C39.3111 90.6047 38.8108 89.9683 38.5091 89.1369C38.2075 88.3055 38.0566 87.3049 38.0566 86.135V79.4801C38.0566 77.9423 38.4981 76.7798 39.381 75.9926C40.2639 75.198 41.4779 74.8007 43.023 74.8007C46.2015 74.8007 47.7907 76.3605 47.7907 79.4801V80.683C47.7907 82.1398 47.776 83.1184 47.7466 83.6187H42.0077V86.8193C42.0077 87.1136 42.0261 87.4042 42.0628 87.6911C42.0996 87.9707 42.1806 88.2025 42.3056 88.3864C42.4381 88.5704 42.6478 88.6623 42.9347 88.6623C43.3467 88.6623 43.6043 88.4858 43.7073 88.1326C43.8103 87.7721 43.8618 87.3049 43.8618 86.731V85.1417H47.7907V86.0798C47.7907 87.3159 47.6362 88.3533 47.3272 89.1921C47.0255 90.0235 46.5105 90.6526 45.7821 91.0793C45.0611 91.4987 44.0751 91.7084 42.8244 91.7084ZM41.9856 81.6542H43.8618V79.4249C43.8618 78.8289 43.7882 78.4022 43.641 78.1447C43.4939 77.8798 43.2732 77.7474 42.9789 77.7474C42.6625 77.7474 42.416 77.8724 42.2394 78.1226C42.0702 78.3728 41.9856 78.8069 41.9856 79.4249V81.6542Z" fill="#212427"/>
<path d="M27.4395 91.5318V72.1078H32.7038C34.1165 72.1078 35.1428 72.4536 35.7829 73.1452C36.4304 73.8295 36.7541 74.9625 36.7541 76.5444V77.3942C36.7541 78.3065 36.5886 79.046 36.2575 79.6125C35.9338 80.1791 35.4371 80.5506 34.7676 80.7272C35.6432 80.9479 36.2281 81.4666 36.5224 82.2833C36.824 83.0927 36.9749 84.0822 36.9749 85.2521C36.9749 86.5102 36.8572 87.6102 36.6217 88.552C36.3863 89.4937 35.9595 90.2258 35.3415 90.7482C34.7235 91.2706 33.8442 91.5318 32.7038 91.5318H27.4395ZM31.236 79.4249H32.0306C32.3911 79.4249 32.6229 79.2851 32.7259 79.0055C32.8289 78.7259 32.8804 78.3912 32.8804 78.0012V76.0478C32.8804 75.4224 32.6045 75.1097 32.0527 75.1097H31.236V79.4249ZM31.6222 88.1105C32.6302 88.1105 33.1342 87.6323 33.1342 86.6758V84.2478C33.1342 83.696 33.0496 83.2619 32.8804 82.9455C32.7185 82.6218 32.4095 82.4599 31.9533 82.4599H31.236V88.0884C31.3978 88.1032 31.5266 88.1105 31.6222 88.1105Z" fill="#212427"/>
<path d="M16.6339 94.2908V91.7856H18.5322C18.8191 91.7856 18.9626 91.6862 18.9626 91.4876C18.9626 91.3846 18.9516 91.2779 18.9295 91.1675L16.3359 74.9772H20.1214L21.225 87.1613L22.5273 74.9772H26.3349L23.2668 92.3926C23.1564 93.018 22.943 93.4888 22.6267 93.8052C22.3176 94.1289 21.8063 94.2908 21.0926 94.2908H16.6339Z" fill="#212427"/>
<path d="M0.158203 91.5318V72.1078H6.0737L7.70708 83.9498L9.32942 72.1078H15.3001V91.5318H11.7464V77.5377L9.51704 91.5318H6.02955L3.66777 77.5377V91.5318H0.158203Z" fill="#212427"/>
<path d="M89.8293 9.83103C91.5495 8.01249 93.9727 6.84733 97.0022 7.42869C101.886 8.36613 105.151 11.8091 106.284 16.0713C107.399 20.2641 106.442 25.0974 103.427 29.1953C101.751 31.4722 99.2123 33.1917 96.4895 34.5312C93.7294 35.8891 90.5314 36.9764 87.2717 37.8691C80.7643 39.6513 73.6157 40.7587 68.5354 41.5947C63.4564 42.4305 60.513 43.4264 58.9484 44.4931C58.2301 44.983 57.9214 45.4102 57.7727 45.7431C57.6246 46.0749 57.5271 46.5555 57.632 47.332C57.7141 47.9392 58.4562 49.2112 61.5822 50.2021C64.5049 51.1286 68.659 51.4748 73.3645 50.9248C78.2036 50.3592 85.72 48.8473 92.1281 47.4492C95.3102 46.7549 98.1829 46.097 100.26 45.6123C101.298 45.37 102.138 45.1712 102.716 45.0332C103.005 44.9643 103.229 44.9104 103.38 44.874C103.456 44.8558 103.514 44.8413 103.552 44.832C103.571 44.8274 103.585 44.8245 103.595 44.8222C103.6 44.8211 103.603 44.8199 103.606 44.8193L103.608 44.8183C103.608 44.8183 103.609 44.819 104.317 47.7343C105.024 50.6492 105.024 50.6493 105.024 50.6494C105.023 50.6496 105.021 50.6501 105.02 50.6504C105.017 50.651 105.013 50.6521 105.008 50.6533C104.998 50.6558 104.982 50.6592 104.962 50.664C104.922 50.6737 104.863 50.6884 104.785 50.707C104.63 50.7444 104.402 50.7992 104.109 50.8691C103.522 51.0091 102.673 51.2103 101.624 51.4551C99.5271 51.9444 96.6249 52.6095 93.4074 53.3115C87.0162 54.7059 79.231 56.2794 74.0608 56.8838C68.7568 57.5037 63.7089 57.1695 59.7697 55.9209C56.034 54.7367 52.2537 52.3383 51.6858 48.1357C51.4657 46.5074 51.5963 44.8591 52.2932 43.2978C52.9894 41.7379 54.1426 40.5074 55.5686 39.5351C58.2937 37.6771 62.3705 36.5279 67.5608 35.6738C72.7498 34.8199 79.5479 33.7642 85.6867 32.083C88.7499 31.2441 91.5502 30.2744 93.841 29.1474C96.1692 28.0021 97.7346 26.8074 98.594 25.6396C100.648 22.8479 101.085 19.8661 100.486 17.6133C99.9049 15.4301 98.3481 13.7967 95.8713 13.3213C95.2201 13.1963 94.7779 13.3313 94.1887 13.9541C93.4579 14.7266 92.7496 16.054 92.0529 17.8955C91.3597 19.7279 90.8366 21.606 90.2268 23.5166C89.9371 24.4239 89.6243 25.3443 89.2775 26.1611C88.9486 26.9358 88.4946 27.849 87.84 28.5908C86.5308 30.0745 84.5292 30.587 82.9777 30.7324C81.2796 30.8915 79.3721 30.6882 77.5686 30.1064C73.9877 28.9512 70.049 25.9449 70.049 20.4824C70.049 19.5654 70.0699 18.6263 70.0891 17.7265C70.1085 16.8133 70.1255 15.9314 70.1203 15.0664C70.1098 13.3186 70.007 11.7913 69.7063 10.4931C69.4101 9.21471 68.9544 8.30071 68.3342 7.64548C67.7368 7.0145 66.7909 6.41506 65.133 6.0908C64.1508 5.89872 63.5083 6.0392 63.0471 6.25681C62.5469 6.49281 62.0397 6.92624 61.5393 7.62595C60.4857 9.09915 59.8407 11.1952 59.3918 13.0166C59.2282 13.6808 59.0978 14.9764 58.8879 16.9834C58.6935 18.8422 58.4457 21.1007 58.0207 23.2685C57.6051 25.3884 56.9703 27.7018 55.8713 29.5517C54.7377 31.4596 52.806 33.3144 49.8488 33.3144C47.1727 33.3142 45.4884 31.5512 44.5402 29.9199C43.6093 28.3179 43.0312 26.2949 42.6125 24.3799C42.1841 22.4203 41.8622 20.2672 41.5627 18.3027C41.2636 16.341 40.988 14.5813 40.6496 13.1289C40.2979 12.1459 39.331 11.2361 38.2688 11.039C37.4694 10.8907 35.7664 11.0169 33.6818 14.0117C32.7128 15.4039 32.0884 17.4464 31.8801 20.1133C31.6739 22.7532 31.8928 25.7801 32.4065 28.9258C33.4349 35.2244 35.5769 41.6116 37.3117 45.5849L31.8127 47.9853C29.9113 43.6303 27.6071 36.7612 26.4856 29.8926C25.9242 26.4545 25.6421 22.9191 25.8977 19.6465C26.1512 16.401 26.9507 13.1792 28.757 10.584C31.7598 6.26988 35.5896 4.43948 39.3635 5.13962C42.7352 5.76528 45.3006 8.31667 46.302 11.1123L46.3938 11.3838L46.4289 11.4912L46.4553 11.6015C46.8772 13.3676 47.1939 15.4344 47.4934 17.3984C47.8016 19.4199 48.0958 21.3652 48.4748 23.0986C48.8635 24.8764 49.2848 26.1418 49.7277 26.9043C49.8411 27.0993 49.9296 27.2195 49.9904 27.291C50.1309 27.237 50.3718 27.0608 50.7131 26.4863C51.2782 25.5351 51.7552 24.0366 52.132 22.1142C52.4995 20.2398 52.7251 18.2246 52.9201 16.3594C53.0997 14.6425 53.2743 12.762 53.5656 11.5801C54.0267 9.70921 54.8828 6.61983 56.6594 4.13572C57.574 2.85684 58.8146 1.61893 60.4865 0.830053C62.1976 0.0227613 64.1526 -0.214757 66.2844 0.202123C68.9602 0.725413 71.0992 1.8388 72.6906 3.51951C74.2591 5.17608 75.0967 7.17331 75.552 9.13865C76.0027 11.0843 76.1089 13.1341 76.1203 15.0302C76.1261 15.9873 76.1074 16.9453 76.0881 17.8545C76.0685 18.7769 76.049 19.6435 76.049 20.4824C76.049 22.3975 77.2737 23.7071 79.4104 24.3965C80.4656 24.7368 81.5562 24.8384 82.4172 24.7578C83.0125 24.702 83.298 24.5846 83.3899 24.5449C83.4073 24.5174 83.431 24.4832 83.4563 24.4385C83.5391 24.2918 83.6386 24.0884 83.7541 23.8164C83.9889 23.2632 84.2347 22.5577 84.5109 21.6924C85.0329 20.0572 85.674 17.7989 86.4406 15.7724C87.2038 13.7552 88.2506 11.5 89.8293 9.83103Z" fill="#212427"/>
</svg>
