<svg width="930" height="663" viewBox="0 0 930 663" fill="none" xmlns="http://www.w3.org/2000/svg">
<path fill-rule="evenodd" clip-rule="evenodd" d="M479.179 118.625L480.623 118.481C590.855 107.342 663.433 100.009 740.373 148.881C763.721 163.711 783.824 190.343 798.258 225.794C812.559 260.931 819.496 300.536 819.496 334.985C819.496 389.713 786.331 450.176 739.569 490.26C699.435 524.659 665.427 544.839 635.094 550.684C608.771 555.753 578.796 551.307 540.634 519.668C536.171 515.971 531.797 512.385 527.517 508.881C503.745 489.401 483.019 472.422 468.332 453.057C453.342 433.285 451.088 419.738 457.457 403.805C464.029 387.383 480.717 367.142 505.227 350.251C529.671 333.404 555.101 324.589 573.551 323.928C588.47 323.399 603.928 324.352 615.823 327.641C623.618 329.795 626.494 331.922 627.254 332.627L651.621 381.35L750.169 332.076L725.532 282.802C706.817 245.373 671.939 228.835 645.175 221.436C617.883 213.894 589.775 213.101 569.617 213.817C524.575 215.426 479.141 234.416 442.703 259.521C406.338 284.588 372.131 320.446 355.158 362.883C329.722 426.464 351.015 480.702 380.538 519.635C403.925 550.47 436.599 577.035 459.815 595.909L459.826 595.92C463.6 598.989 467.12 601.848 470.315 604.498C530.271 654.196 592.965 671.01 655.94 658.878C714.905 647.519 766.812 612.029 811.276 573.917C875.628 518.753 929.678 429.902 929.678 334.985C929.678 287.232 920.324 233.424 900.309 184.255C880.427 135.4 848.193 86.8314 799.448 55.8701C689.854 -13.7379 582.173 -2.69203 481.328 7.64863L472.563 8.54658C471.076 8.70084 469.588 8.84959 468.106 8.99834C360.38 19.8789 266.141 55.5009 181.868 127.93C114.656 185.687 52.436 247.175 18.2848 344.246L0 396.214L103.935 432.783L122.22 380.816C146.427 312.018 190.038 266.181 253.679 211.492C318.66 155.652 390.829 127.549 479.179 118.625ZM627.485 332.87C627.48 332.87 627.441 332.831 627.381 332.743C627.458 332.82 627.485 332.864 627.485 332.87Z" fill="#212427"/>
</svg>
