<svg xmlns="http://www.w3.org/2000/svg" xmlns:xlink="http://www.w3.org/1999/xlink" width="1920" zoomAndPan="magnify" viewBox="0 0 1440 809.999993" height="1080" preserveAspectRatio="xMidYMid meet" version="1.0"><defs><g/><clipPath id="100baac056"><path d="M 653.074219 378.699219 L 705.316406 378.699219 L 705.316406 430.941406 L 653.074219 430.941406 Z M 653.074219 378.699219 " clip-rule="nonzero"/></clipPath><clipPath id="d909f65617"><path d="M 679.195312 378.699219 C 664.769531 378.699219 653.074219 390.394531 653.074219 404.820312 C 653.074219 419.246094 664.769531 430.941406 679.195312 430.941406 C 693.621094 430.941406 705.316406 419.246094 705.316406 404.820312 C 705.316406 390.394531 693.621094 378.699219 679.195312 378.699219 Z M 679.195312 378.699219 " clip-rule="nonzero"/></clipPath></defs><g clip-path="url(#100baac056)"><g clip-path="url(#d909f65617)"><path fill="#212427" d="M 653.074219 378.699219 L 705.316406 378.699219 L 705.316406 430.941406 L 653.074219 430.941406 Z M 653.074219 378.699219 " fill-opacity="1" fill-rule="nonzero"/></g></g><g fill="#f8f8ff" fill-opacity="1"><g transform="translate(659.808084, 411.944764)"><g><path d="M 11.125 0 L 11.125 -6.078125 C 11.125 -7.566406 11.015625 -8.3125 10.796875 -8.3125 C 10.335938 -8.3125 9.664062 -8.050781 8.78125 -7.53125 C 8.851562 -7.039062 8.890625 -6.554688 8.890625 -6.078125 L 8.890625 0 C 8.890625 0.0820312 8.878906 0.132812 8.859375 0.15625 C 8.796875 0.257812 8.539062 0.3125 8.09375 0.3125 C 7.644531 0.3125 7.1875 0.28125 6.71875 0.21875 C 6.25 0.15625 6.015625 0.0820312 6.015625 0 L 6.015625 -6.8125 C 5.984375 -7.8125 5.875 -8.3125 5.6875 -8.3125 C 5.207031 -8.3125 4.570312 -8.070312 3.78125 -7.59375 L 3.78125 0 C 3.78125 0.0820312 3.769531 0.132812 3.75 0.15625 C 3.6875 0.257812 3.429688 0.3125 2.984375 0.3125 C 2.535156 0.3125 2.078125 0.28125 1.609375 0.21875 C 1.140625 0.15625 0.90625 0.0820312 0.90625 0 L 0.90625 -9.90625 C 0.90625 -10.113281 1.171875 -10.21875 1.703125 -10.21875 C 2.535156 -10.21875 3.015625 -10.113281 3.140625 -9.90625 C 3.140625 -9.875 3.144531 -9.859375 3.15625 -9.859375 L 3.53125 -9.109375 C 4.65625 -9.847656 5.488281 -10.21875 6.03125 -10.21875 C 7.195312 -10.21875 7.988281 -9.796875 8.40625 -8.953125 C 9.632812 -9.796875 10.546875 -10.21875 11.140625 -10.21875 C 12.128906 -10.21875 12.851562 -9.910156 13.3125 -9.296875 C 13.769531 -8.691406 14 -7.617188 14 -6.078125 L 14 0 C 14 0.0820312 13.992188 0.132812 13.984375 0.15625 C 13.910156 0.257812 13.648438 0.3125 13.203125 0.3125 C 12.765625 0.3125 12.304688 0.28125 11.828125 0.21875 C 11.359375 0.15625 11.125 0.0820312 11.125 0 Z M 11.125 0 "/></g></g></g><g fill="#f8f8ff" fill-opacity="1"><g transform="translate(674.684762, 411.944764)"><g><path d="M 0.421875 -9.96875 C 0.421875 -10.132812 0.660156 -10.21875 1.140625 -10.21875 C 1.628906 -10.21875 2.082031 -10.1875 2.5 -10.125 C 2.925781 -10.0625 3.144531 -9.988281 3.15625 -9.90625 L 4.9375 -3.078125 L 6.484375 -9.90625 C 6.535156 -10.113281 6.75 -10.21875 7.125 -10.21875 C 7.863281 -10.21875 8.351562 -10.175781 8.59375 -10.09375 C 8.832031 -10.019531 8.953125 -9.960938 8.953125 -9.921875 L 4.953125 4.46875 C 4.898438 4.6875 4.6875 4.796875 4.3125 4.796875 C 3.9375 4.796875 3.628906 4.78125 3.390625 4.75 C 2.867188 4.6875 2.625 4.59375 2.65625 4.46875 C 2.65625 4.425781 2.660156 4.394531 2.671875 4.375 L 3.6875 0 L 0.4375 -9.859375 L 0.4375 -9.90625 C 0.425781 -9.925781 0.421875 -9.945312 0.421875 -9.96875 Z M 0.421875 -9.96875 "/></g></g></g><g fill="#85b6b3" fill-opacity="1"><g transform="translate(683.878395, 411.944764)"><g><path d="M 6.953125 -14.65625 C 6.953125 -14.9375 7.015625 -15.117188 7.140625 -15.203125 C 7.265625 -15.296875 7.523438 -15.34375 7.921875 -15.34375 C 8.878906 -15.34375 9.367188 -15.09375 9.390625 -14.59375 L 9.765625 -8.609375 L 9.765625 -0.421875 C 9.765625 -0.191406 9.757812 -0.0351562 9.75 0.046875 C 9.695312 0.222656 9.4375 0.3125 8.96875 0.3125 C 7.625 0.3125 6.953125 0.0703125 6.953125 -0.40625 L 6.953125 -6.1875 L 3.671875 -6.1875 L 3.6875 -0.421875 C 3.6875 -0.191406 3.679688 -0.0351562 3.671875 0.046875 C 3.617188 0.222656 3.359375 0.3125 2.890625 0.3125 C 1.566406 0.3125 0.90625 0.0625 0.90625 -0.4375 L 0.90625 -14.640625 C 0.90625 -14.929688 0.96875 -15.117188 1.09375 -15.203125 C 1.21875 -15.296875 1.476562 -15.34375 1.875 -15.34375 C 2.832031 -15.34375 3.316406 -15.109375 3.328125 -14.640625 L 3.671875 -8.59375 L 6.953125 -8.59375 Z M 6.953125 -14.65625 "/></g></g></g><g fill="#000000" fill-opacity="1"><g transform="translate(712.896293, 409.694735)"><g><path d="M 8.90625 0 L 8.90625 -4.859375 C 8.90625 -6.054688 8.820312 -6.65625 8.65625 -6.65625 C 8.28125 -6.65625 7.742188 -6.445312 7.046875 -6.03125 C 7.097656 -5.632812 7.125 -5.242188 7.125 -4.859375 L 7.125 0 C 7.125 0.0625 7.117188 0.101562 7.109375 0.125 C 7.054688 0.207031 6.847656 0.25 6.484375 0.25 C 6.128906 0.25 5.757812 0.222656 5.375 0.171875 C 5 0.117188 4.8125 0.0625 4.8125 0 L 4.8125 -5.453125 C 4.789062 -6.253906 4.707031 -6.65625 4.5625 -6.65625 C 4.175781 -6.65625 3.664062 -6.460938 3.03125 -6.078125 L 3.03125 0 C 3.03125 0.0625 3.023438 0.101562 3.015625 0.125 C 2.953125 0.207031 2.742188 0.25 2.390625 0.25 C 2.035156 0.25 1.664062 0.222656 1.28125 0.171875 C 0.90625 0.117188 0.71875 0.0625 0.71875 0 L 0.71875 -7.9375 C 0.71875 -8.101562 0.929688 -8.1875 1.359375 -8.1875 C 2.035156 -8.1875 2.421875 -8.101562 2.515625 -7.9375 C 2.515625 -7.914062 2.519531 -7.90625 2.53125 -7.90625 L 2.828125 -7.296875 C 3.722656 -7.890625 4.390625 -8.1875 4.828125 -8.1875 C 5.765625 -8.1875 6.398438 -7.847656 6.734375 -7.171875 C 7.710938 -7.847656 8.441406 -8.1875 8.921875 -8.1875 C 9.710938 -8.1875 10.289062 -7.941406 10.65625 -7.453125 C 11.03125 -6.960938 11.21875 -6.097656 11.21875 -4.859375 L 11.21875 0 C 11.21875 0.0625 11.210938 0.101562 11.203125 0.125 C 11.148438 0.207031 10.941406 0.25 10.578125 0.25 C 10.222656 0.25 9.851562 0.222656 9.46875 0.171875 C 9.09375 0.117188 8.90625 0.0625 8.90625 0 Z M 8.90625 0 "/></g></g></g><g fill="#000000" fill-opacity="1"><g transform="translate(724.813426, 409.694735)"><g><path d="M 0.34375 -7.984375 C 0.34375 -8.117188 0.535156 -8.1875 0.921875 -8.1875 C 1.304688 -8.1875 1.664062 -8.160156 2 -8.109375 C 2.34375 -8.054688 2.519531 -8 2.53125 -7.9375 L 3.953125 -2.46875 L 5.203125 -7.9375 C 5.242188 -8.101562 5.414062 -8.1875 5.71875 -8.1875 C 6.300781 -8.1875 6.6875 -8.15625 6.875 -8.09375 C 7.070312 -8.03125 7.171875 -7.984375 7.171875 -7.953125 L 3.96875 3.578125 C 3.925781 3.753906 3.753906 3.84375 3.453125 3.84375 C 3.160156 3.84375 2.914062 3.832031 2.71875 3.8125 C 2.300781 3.757812 2.101562 3.679688 2.125 3.578125 C 2.125 3.546875 2.128906 3.519531 2.140625 3.5 L 2.953125 0 L 0.359375 -7.90625 L 0.359375 -7.9375 C 0.347656 -7.957031 0.34375 -7.972656 0.34375 -7.984375 Z M 0.34375 -7.984375 "/></g></g></g><g fill="#000000" fill-opacity="1"><g transform="translate(732.171656, 409.694735)"><g><path d="M 5.5625 -11.75 C 5.5625 -11.96875 5.613281 -12.109375 5.71875 -12.171875 C 5.820312 -12.242188 6.035156 -12.28125 6.359375 -12.28125 C 7.117188 -12.28125 7.503906 -12.085938 7.515625 -11.703125 L 7.828125 -6.890625 L 7.828125 -0.34375 C 7.828125 -0.15625 7.820312 -0.03125 7.8125 0.03125 C 7.769531 0.175781 7.5625 0.25 7.1875 0.25 C 6.101562 0.25 5.5625 0.0625 5.5625 -0.3125 L 5.5625 -4.953125 L 2.9375 -4.953125 L 2.953125 -0.34375 C 2.953125 -0.15625 2.945312 -0.03125 2.9375 0.03125 C 2.894531 0.175781 2.6875 0.25 2.3125 0.25 C 1.25 0.25 0.71875 0.046875 0.71875 -0.359375 L 0.71875 -11.734375 C 0.71875 -11.960938 0.769531 -12.109375 0.875 -12.171875 C 0.976562 -12.242188 1.1875 -12.28125 1.5 -12.28125 C 2.269531 -12.28125 2.660156 -12.097656 2.671875 -11.734375 L 2.9375 -6.875 L 5.5625 -6.875 Z M 5.5625 -11.75 "/></g></g></g><g fill="#000000" fill-opacity="1"><g transform="translate(740.697607, 409.694735)"><g><path d="M 4.390625 -0.5 C 3.828125 0 3.328125 0.25 2.890625 0.25 C 2.460938 0.25 2.113281 0.21875 1.84375 0.15625 C 1.582031 0.101562 1.34375 -0.0195312 1.125 -0.21875 C 0.914062 -0.414062 0.769531 -0.695312 0.6875 -1.0625 C 0.601562 -1.4375 0.5625 -1.9375 0.5625 -2.5625 C 0.5625 -3.425781 0.984375 -4.019531 1.828125 -4.34375 L 4.109375 -4.921875 C 4.097656 -5.617188 4.03125 -6.066406 3.90625 -6.265625 C 3.78125 -6.472656 3.503906 -6.578125 3.078125 -6.578125 C 2.648438 -6.578125 2.28125 -6.507812 1.96875 -6.375 L 1.40625 -6.140625 L 1.390625 -6.140625 C 1.296875 -6.085938 1.210938 -6.128906 1.140625 -6.265625 C 0.941406 -6.671875 0.84375 -6.988281 0.84375 -7.21875 C 0.84375 -7.445312 0.859375 -7.570312 0.890625 -7.59375 C 0.929688 -7.625 0.953125 -7.644531 0.953125 -7.65625 C 1.492188 -8.007812 2.1875 -8.1875 3.03125 -8.1875 C 3.875 -8.1875 4.523438 -8.070312 4.984375 -7.84375 C 5.453125 -7.625 5.785156 -7.21875 5.984375 -6.625 C 6.191406 -6.039062 6.296875 -5.164062 6.296875 -4 L 6.265625 0 C 6.265625 0.0625 6.253906 0.101562 6.234375 0.125 C 6.191406 0.207031 5.988281 0.25 5.625 0.25 C 4.96875 0.25 4.640625 0.164062 4.640625 0 Z M 2.34375 -2.53125 C 2.34375 -1.757812 2.566406 -1.351562 3.015625 -1.3125 C 3.316406 -1.3125 3.539062 -1.363281 3.6875 -1.46875 C 3.976562 -1.675781 4.125 -2.4375 4.125 -3.75 C 3.570312 -3.664062 3.132812 -3.507812 2.8125 -3.28125 C 2.5 -3.050781 2.34375 -2.800781 2.34375 -2.53125 Z M 2.34375 -2.53125 "/></g></g></g><g fill="#000000" fill-opacity="1"><g transform="translate(747.655935, 409.694735)"><g><path d="M 0.75 0 L 0.75 -7.9375 C 0.75 -8.101562 0.941406 -8.1875 1.328125 -8.1875 C 1.710938 -8.1875 2.070312 -8.160156 2.40625 -8.109375 C 2.75 -8.054688 2.921875 -8 2.921875 -7.9375 L 2.921875 0 C 2.921875 0.0625 2.914062 0.101562 2.90625 0.125 C 2.851562 0.207031 2.648438 0.25 2.296875 0.25 C 1.953125 0.25 1.609375 0.222656 1.265625 0.171875 C 0.921875 0.117188 0.75 0.0625 0.75 0 Z M 1.734375 -9.984375 C 0.972656 -9.984375 0.59375 -10.363281 0.59375 -11.125 C 0.59375 -11.894531 0.972656 -12.28125 1.734375 -12.28125 C 2.503906 -12.28125 2.890625 -11.894531 2.890625 -11.125 C 2.890625 -10.363281 2.503906 -9.984375 1.734375 -9.984375 Z M 1.734375 -9.984375 "/></g></g></g><g fill="#000000" fill-opacity="1"><g transform="translate(751.287065, 409.694735)"><g><path d="M 2.59375 -7.296875 C 3.46875 -7.890625 4.046875 -8.1875 4.328125 -8.1875 C 4.609375 -8.1875 4.863281 -8.132812 5.09375 -8.03125 C 5.320312 -7.925781 5.488281 -7.820312 5.59375 -7.71875 L 5.75 -7.5625 C 5.582031 -6.882812 5.457031 -6.457031 5.375 -6.28125 C 5.289062 -6.113281 5.175781 -6.03125 5.03125 -6.03125 C 4.882812 -6.03125 4.695312 -6.085938 4.46875 -6.203125 C 4.25 -6.328125 4.046875 -6.390625 3.859375 -6.390625 C 3.679688 -6.390625 3.320312 -6.222656 2.78125 -5.890625 L 2.78125 0 C 2.78125 0.0625 2.769531 0.101562 2.75 0.125 C 2.707031 0.207031 2.507812 0.25 2.15625 0.25 C 1.800781 0.25 1.472656 0.222656 1.171875 0.171875 C 0.867188 0.117188 0.71875 0.0625 0.71875 0 L 0.71875 -7.9375 C 0.71875 -8.101562 0.957031 -8.1875 1.4375 -8.1875 C 1.914062 -8.1875 2.191406 -8.101562 2.265625 -7.9375 L 2.265625 -7.90625 Z M 2.59375 -7.296875 "/></g></g></g><g fill="#000000" fill-opacity="1"><g transform="translate(757.173653, 409.694735)"><g><path d="M 5.9375 -7.640625 C 6.007812 -7.597656 6.046875 -7.5 6.046875 -7.34375 C 6.046875 -7.195312 6.007812 -6.992188 5.9375 -6.734375 C 5.800781 -6.265625 5.648438 -6.066406 5.484375 -6.140625 L 5.46875 -6.140625 L 4.90625 -6.375 C 4.601562 -6.507812 4.226562 -6.578125 3.78125 -6.578125 C 3.34375 -6.578125 3.0625 -6.394531 2.9375 -6.03125 C 2.8125 -5.664062 2.75 -4.96875 2.75 -3.9375 C 2.75 -2.90625 2.828125 -2.207031 2.984375 -1.84375 C 3.140625 -1.488281 3.4375 -1.3125 3.875 -1.3125 C 4.5 -1.3125 4.988281 -1.347656 5.34375 -1.421875 C 5.695312 -1.492188 5.878906 -1.53125 5.890625 -1.53125 C 5.960938 -1.550781 6.019531 -1.507812 6.0625 -1.40625 C 6.113281 -1.300781 6.140625 -1.050781 6.140625 -0.65625 C 6.140625 -0.257812 6.054688 -0.0390625 5.890625 0 C 5.222656 0.164062 4.570312 0.25 3.9375 0.25 C 2.644531 0.25 1.757812 -0.0507812 1.28125 -0.65625 C 0.8125 -1.269531 0.578125 -2.382812 0.578125 -4 C 0.578125 -5.164062 0.679688 -6.039062 0.890625 -6.625 C 1.097656 -7.21875 1.429688 -7.625 1.890625 -7.84375 C 2.347656 -8.070312 3.015625 -8.1875 3.890625 -8.1875 C 4.765625 -8.1875 5.441406 -8.003906 5.921875 -7.640625 Z M 5.9375 -7.640625 "/></g></g></g><g fill="#000000" fill-opacity="1"><g transform="translate(763.748078, 409.694735)"><g><path d="M 0.59375 -4 C 0.59375 -5.164062 0.691406 -6.046875 0.890625 -6.640625 C 1.097656 -7.234375 1.421875 -7.640625 1.859375 -7.859375 C 2.296875 -8.078125 2.941406 -8.1875 3.796875 -8.1875 C 4.648438 -8.1875 5.296875 -8.078125 5.734375 -7.859375 C 6.171875 -7.640625 6.488281 -7.234375 6.6875 -6.640625 C 6.882812 -6.046875 6.984375 -5.164062 6.984375 -4 C 6.984375 -2.394531 6.753906 -1.285156 6.296875 -0.671875 C 5.835938 -0.0546875 5 0.25 3.78125 0.25 C 2.570312 0.25 1.738281 -0.0546875 1.28125 -0.671875 C 0.820312 -1.285156 0.59375 -2.394531 0.59375 -4 Z M 2.765625 -4 C 2.765625 -2.207031 2.9375 -1.3125 3.28125 -1.3125 C 3.75 -1.3125 4.09375 -1.382812 4.3125 -1.53125 C 4.4375 -1.613281 4.519531 -1.769531 4.5625 -2 C 4.644531 -2.445312 4.6875 -3.113281 4.6875 -4 C 4.6875 -5.769531 4.515625 -6.65625 4.171875 -6.65625 C 3.535156 -6.65625 3.140625 -6.507812 2.984375 -6.21875 C 2.835938 -5.925781 2.765625 -5.1875 2.765625 -4 Z M 2.765625 -4 "/></g></g></g><g fill="#000000" fill-opacity="1"><g transform="translate(771.330258, 409.694735)"><g><path d="M 2.5625 0.25 C 1.769531 0.25 1.1875 -0.0703125 0.8125 -0.71875 C 0.445312 -1.363281 0.265625 -2.484375 0.265625 -4.078125 C 0.265625 -5.679688 0.492188 -6.765625 0.953125 -7.328125 C 1.421875 -7.898438 2.300781 -8.1875 3.59375 -8.1875 L 4.375 -8.1875 L 4.375 -12.03125 C 4.375 -12.195312 4.554688 -12.28125 4.921875 -12.28125 C 5.296875 -12.28125 5.601562 -12.253906 5.84375 -12.203125 C 6.09375 -12.160156 6.222656 -12.101562 6.234375 -12.03125 L 6.515625 -6.921875 L 6.515625 0 C 6.515625 0.0625 6.507812 0.101562 6.5 0.125 C 6.445312 0.207031 6.25 0.25 5.90625 0.25 C 5.5625 0.25 5.269531 0.222656 5.03125 0.171875 C 4.789062 0.128906 4.671875 0.0703125 4.671875 0 L 4.375 -0.5 C 4.0625 -0.289062 3.84375 -0.144531 3.71875 -0.0625 C 3.363281 0.144531 2.976562 0.25 2.5625 0.25 Z M 3.59375 -6.65625 C 3.207031 -6.65625 2.941406 -6.492188 2.796875 -6.171875 C 2.648438 -5.847656 2.578125 -5.296875 2.578125 -4.515625 C 2.578125 -3.742188 2.578125 -3.234375 2.578125 -2.984375 C 2.585938 -2.742188 2.597656 -2.460938 2.609375 -2.140625 C 2.628906 -1.566406 2.703125 -1.28125 2.828125 -1.28125 C 3.210938 -1.28125 3.726562 -1.472656 4.375 -1.859375 L 4.375 -6.65625 Z M 3.59375 -6.65625 "/></g></g></g><g fill="#000000" fill-opacity="1"><g transform="translate(778.544521, 409.694735)"><g><path d="M 3.625 0.25 C 2.488281 0.25 1.695312 -0.0546875 1.25 -0.671875 C 0.8125 -1.285156 0.59375 -2.394531 0.59375 -4 C 0.59375 -5.15625 0.691406 -6.03125 0.890625 -6.625 C 1.097656 -7.226562 1.40625 -7.640625 1.8125 -7.859375 C 2.226562 -8.078125 2.832031 -8.1875 3.625 -8.1875 C 4.425781 -8.1875 5.03125 -8.070312 5.4375 -7.84375 C 5.851562 -7.625 6.15625 -7.210938 6.34375 -6.609375 C 6.539062 -6.003906 6.640625 -5.140625 6.640625 -4.015625 C 6.640625 -3.953125 6.640625 -3.890625 6.640625 -3.828125 C 6.640625 -3.765625 6.515625 -3.703125 6.265625 -3.640625 C 6.015625 -3.585938 5.710938 -3.5625 5.359375 -3.5625 L 2.890625 -3.5625 C 2.910156 -2.320312 3.003906 -1.613281 3.171875 -1.4375 C 3.265625 -1.351562 3.414062 -1.3125 3.625 -1.3125 C 5.03125 -1.3125 5.988281 -1.378906 6.5 -1.515625 C 6.519531 -1.523438 6.535156 -1.53125 6.546875 -1.53125 C 6.617188 -1.550781 6.675781 -1.507812 6.71875 -1.40625 C 6.769531 -1.300781 6.796875 -1.050781 6.796875 -0.65625 C 6.796875 -0.257812 6.710938 -0.0390625 6.546875 0 C 6.109375 0.164062 5.132812 0.25 3.625 0.25 Z M 2.890625 -6.09375 L 2.890625 -4.84375 L 4.515625 -4.84375 C 4.472656 -6.082031 4.347656 -6.703125 4.140625 -6.703125 C 3.773438 -6.703125 3.472656 -6.648438 3.234375 -6.546875 C 3.003906 -6.441406 2.890625 -6.289062 2.890625 -6.09375 Z M 2.890625 -6.09375 "/></g></g></g></svg>