<svg xmlns="http://www.w3.org/2000/svg" xmlns:xlink="http://www.w3.org/1999/xlink" zoomAndPan="magnify" preserveAspectRatio="xMidYMid meet" version="1.0" viewBox="604 246 239.63 317.55"><defs><g/><clipPath id="958edf554b"><path d="M 604 246 L 843.625 246 L 843.625 485.625 L 604 485.625 Z M 604 246 " clip-rule="nonzero"/></clipPath><clipPath id="4cff9c0610"><path d="M 723.8125 246 C 657.640625 246 604 299.640625 604 365.8125 C 604 431.984375 657.640625 485.625 723.8125 485.625 C 789.984375 485.625 843.625 431.984375 843.625 365.8125 C 843.625 299.640625 789.984375 246 723.8125 246 Z M 723.8125 246 " clip-rule="nonzero"/></clipPath></defs><g clip-path="url(#958edf554b)"><g clip-path="url(#4cff9c0610)"><path fill="#212427" d="M 604 246 L 843.625 246 L 843.625 485.625 L 604 485.625 Z M 604 246 " fill-opacity="1" fill-rule="nonzero"/></g></g><g fill="#f7f7f7" fill-opacity="1"><g transform="translate(632.80467, 399.1875)"><g><path d="M 53.46875 0 L 53.46875 -29.1875 C 53.46875 -36.351562 52.957031 -39.9375 51.9375 -39.9375 C 49.695312 -39.9375 46.460938 -38.6875 42.234375 -36.1875 C 42.554688 -33.820312 42.71875 -31.488281 42.71875 -29.1875 L 42.71875 0 C 42.71875 0.382812 42.6875 0.640625 42.625 0.765625 C 42.300781 1.273438 41.066406 1.53125 38.921875 1.53125 C 36.785156 1.53125 34.578125 1.367188 32.296875 1.046875 C 30.023438 0.734375 28.890625 0.382812 28.890625 0 L 28.890625 -32.734375 C 28.765625 -37.535156 28.253906 -39.9375 27.359375 -39.9375 C 25.054688 -39.9375 21.984375 -38.785156 18.140625 -36.484375 L 18.140625 0 C 18.140625 0.382812 18.109375 0.640625 18.046875 0.765625 C 17.722656 1.273438 16.488281 1.53125 14.34375 1.53125 C 12.207031 1.53125 10 1.367188 7.71875 1.046875 C 5.445312 0.734375 4.3125 0.382812 4.3125 0 L 4.3125 -47.609375 C 4.3125 -48.640625 5.59375 -49.15625 8.15625 -49.15625 C 12.1875 -49.15625 14.492188 -48.640625 15.078125 -47.609375 C 15.078125 -47.484375 15.109375 -47.421875 15.171875 -47.421875 L 16.984375 -43.78125 C 22.367188 -47.363281 26.367188 -49.15625 28.984375 -49.15625 C 34.617188 -49.15625 38.429688 -47.109375 40.421875 -43.015625 C 46.304688 -47.109375 50.6875 -49.15625 53.5625 -49.15625 C 58.300781 -49.15625 61.773438 -47.679688 63.984375 -44.734375 C 66.191406 -41.785156 67.296875 -36.601562 67.296875 -29.1875 L 67.296875 0 C 67.296875 0.382812 67.265625 0.640625 67.203125 0.765625 C 66.878906 1.273438 65.644531 1.53125 63.5 1.53125 C 61.351562 1.53125 59.144531 1.367188 56.875 1.046875 C 54.601562 0.734375 53.46875 0.382812 53.46875 0 Z M 53.46875 0 "/></g></g></g><g fill="#f7f7f7" fill-opacity="1"><g transform="translate(704.324678, 399.1875)"><g><path d="M 2.015625 -47.90625 C 2.015625 -48.738281 3.179688 -49.15625 5.515625 -49.15625 C 7.859375 -49.15625 10.035156 -48.992188 12.046875 -48.671875 C 14.066406 -48.347656 15.109375 -47.992188 15.171875 -47.609375 L 23.71875 -14.78125 L 31.203125 -47.609375 C 31.453125 -48.640625 32.472656 -49.15625 34.265625 -49.15625 C 37.785156 -49.15625 40.125 -48.960938 41.28125 -48.578125 C 42.4375 -48.191406 43.015625 -47.90625 43.015625 -47.71875 L 23.8125 21.5 C 23.550781 22.53125 22.523438 23.046875 20.734375 23.046875 C 18.941406 23.046875 17.46875 22.976562 16.3125 22.84375 C 13.820312 22.53125 12.640625 22.082031 12.765625 21.5 C 12.765625 21.3125 12.796875 21.15625 12.859375 21.03125 L 17.765625 0 L 2.109375 -47.421875 L 2.109375 -47.609375 C 2.046875 -47.742188 2.015625 -47.84375 2.015625 -47.90625 Z M 2.015625 -47.90625 "/></g></g></g><g fill="#85b6b3" fill-opacity="1"><g transform="translate(748.492164, 399.1875)"><g><path d="M 33.40625 -70.46875 C 33.40625 -71.8125 33.707031 -72.691406 34.3125 -73.109375 C 34.925781 -73.523438 36.191406 -73.734375 38.109375 -73.734375 C 42.722656 -73.734375 45.0625 -72.546875 45.125 -70.171875 L 46.9375 -41.375 L 46.9375 -2.015625 C 46.9375 -0.929688 46.90625 -0.195312 46.84375 0.1875 C 46.59375 1.082031 45.347656 1.53125 43.109375 1.53125 C 36.640625 1.53125 33.40625 0.378906 33.40625 -1.921875 L 33.40625 -29.765625 L 17.65625 -29.765625 L 17.765625 -2.015625 C 17.765625 -0.929688 17.726562 -0.195312 17.65625 0.1875 C 17.40625 1.082031 16.160156 1.53125 13.921875 1.53125 C 7.515625 1.53125 4.3125 0.316406 4.3125 -2.109375 L 4.3125 -70.375 C 4.3125 -71.78125 4.613281 -72.691406 5.21875 -73.109375 C 5.832031 -73.523438 7.101562 -73.734375 9.03125 -73.734375 C 13.632812 -73.734375 15.96875 -72.613281 16.03125 -70.375 L 17.65625 -41.28125 L 33.40625 -41.28125 Z M 33.40625 -70.46875 "/></g></g></g><g fill="#212427" fill-opacity="1"><g transform="translate(605.242183, 551.066416)"><g><path d="M 28.96875 0 L 28.96875 -15.8125 C 28.96875 -19.6875 28.6875 -21.625 28.125 -21.625 C 26.914062 -21.625 25.164062 -20.953125 22.875 -19.609375 C 23.050781 -18.328125 23.140625 -17.0625 23.140625 -15.8125 L 23.140625 0 C 23.140625 0.207031 23.125 0.347656 23.09375 0.421875 C 22.914062 0.691406 22.242188 0.828125 21.078125 0.828125 C 19.921875 0.828125 18.726562 0.738281 17.5 0.5625 C 16.269531 0.394531 15.65625 0.207031 15.65625 0 L 15.65625 -17.734375 C 15.582031 -20.328125 15.300781 -21.625 14.8125 -21.625 C 13.570312 -21.625 11.910156 -21.003906 9.828125 -19.765625 L 9.828125 0 C 9.828125 0.207031 9.8125 0.347656 9.78125 0.421875 C 9.601562 0.691406 8.929688 0.828125 7.765625 0.828125 C 6.609375 0.828125 5.414062 0.738281 4.1875 0.5625 C 2.957031 0.394531 2.34375 0.207031 2.34375 0 L 2.34375 -25.796875 C 2.34375 -26.347656 3.035156 -26.625 4.421875 -26.625 C 6.609375 -26.625 7.851562 -26.347656 8.15625 -25.796875 C 8.15625 -25.722656 8.175781 -25.6875 8.21875 -25.6875 L 9.203125 -23.71875 C 12.117188 -25.65625 14.285156 -26.625 15.703125 -26.625 C 18.753906 -26.625 20.816406 -25.515625 21.890625 -23.296875 C 25.078125 -25.515625 27.453125 -26.625 29.015625 -26.625 C 31.578125 -26.625 33.457031 -25.828125 34.65625 -24.234375 C 35.851562 -22.640625 36.453125 -19.832031 36.453125 -15.8125 L 36.453125 0 C 36.453125 0.207031 36.4375 0.347656 36.40625 0.421875 C 36.226562 0.691406 35.554688 0.828125 34.390625 0.828125 C 33.234375 0.828125 32.039062 0.738281 30.8125 0.5625 C 29.582031 0.394531 28.96875 0.207031 28.96875 0 Z M 28.96875 0 "/></g></g></g><g fill="#212427" fill-opacity="1"><g transform="translate(643.979242, 551.066416)"><g><path d="M 1.09375 -25.953125 C 1.09375 -26.398438 1.722656 -26.625 2.984375 -26.625 C 4.253906 -26.625 5.429688 -26.535156 6.515625 -26.359375 C 7.609375 -26.191406 8.175781 -26.003906 8.21875 -25.796875 L 12.84375 -8.015625 L 16.90625 -25.796875 C 17.039062 -26.347656 17.59375 -26.625 18.5625 -26.625 C 20.46875 -26.625 21.734375 -26.519531 22.359375 -26.3125 C 22.984375 -26.101562 23.296875 -25.945312 23.296875 -25.84375 L 12.890625 11.640625 C 12.753906 12.203125 12.203125 12.484375 11.234375 12.484375 C 10.265625 12.484375 9.46875 12.445312 8.84375 12.375 C 7.488281 12.195312 6.847656 11.953125 6.921875 11.640625 C 6.921875 11.535156 6.9375 11.453125 6.96875 11.390625 L 9.625 0 L 1.140625 -25.6875 L 1.140625 -25.796875 C 1.109375 -25.859375 1.09375 -25.910156 1.09375 -25.953125 Z M 1.09375 -25.953125 "/></g></g></g><g fill="#212427" fill-opacity="1"><g transform="translate(667.897427, 551.066416)"><g><path d="M 18.09375 -38.171875 C 18.09375 -38.898438 18.253906 -39.375 18.578125 -39.59375 C 18.910156 -39.820312 19.597656 -39.9375 20.640625 -39.9375 C 23.140625 -39.9375 24.40625 -39.296875 24.4375 -38.015625 L 25.421875 -22.40625 L 25.421875 -1.09375 C 25.421875 -0.5 25.40625 -0.0976562 25.375 0.109375 C 25.238281 0.585938 24.5625 0.828125 23.34375 0.828125 C 19.84375 0.828125 18.09375 0.203125 18.09375 -1.046875 L 18.09375 -16.125 L 9.5625 -16.125 L 9.625 -1.09375 C 9.625 -0.5 9.601562 -0.0976562 9.5625 0.109375 C 9.425781 0.585938 8.753906 0.828125 7.546875 0.828125 C 4.078125 0.828125 2.34375 0.171875 2.34375 -1.140625 L 2.34375 -38.109375 C 2.34375 -38.878906 2.503906 -39.375 2.828125 -39.59375 C 3.160156 -39.820312 3.847656 -39.9375 4.890625 -39.9375 C 7.378906 -39.9375 8.644531 -39.328125 8.6875 -38.109375 L 9.5625 -22.359375 L 18.09375 -22.359375 Z M 18.09375 -38.171875 "/></g></g></g><g fill="#212427" fill-opacity="1"><g transform="translate(695.61132, 551.066416)"><g><path d="M 14.25 -1.609375 C 12.445312 0.015625 10.84375 0.828125 9.4375 0.828125 C 8.03125 0.828125 6.894531 0.734375 6.03125 0.546875 C 5.164062 0.359375 4.382812 -0.0507812 3.6875 -0.6875 C 3 -1.332031 2.515625 -2.257812 2.234375 -3.46875 C 1.953125 -4.6875 1.8125 -6.300781 1.8125 -8.3125 C 1.8125 -11.125 3.179688 -13.050781 5.921875 -14.09375 L 13.359375 -16.015625 C 13.328125 -18.265625 13.101562 -19.71875 12.6875 -20.375 C 12.269531 -21.039062 11.367188 -21.375 9.984375 -21.375 C 8.597656 -21.375 7.398438 -21.148438 6.390625 -20.703125 L 4.578125 -19.96875 L 4.53125 -19.96875 C 4.21875 -19.789062 3.9375 -19.929688 3.6875 -20.390625 C 3.0625 -21.703125 2.75 -22.726562 2.75 -23.46875 C 2.75 -24.21875 2.8125 -24.632812 2.9375 -24.71875 C 3.0625 -24.8125 3.125 -24.875 3.125 -24.90625 C 4.851562 -26.050781 7.09375 -26.625 9.84375 -26.625 C 12.601562 -26.625 14.726562 -26.257812 16.21875 -25.53125 C 17.707031 -24.800781 18.789062 -23.472656 19.46875 -21.546875 C 20.144531 -19.628906 20.484375 -16.78125 20.484375 -13 L 20.390625 0 C 20.390625 0.207031 20.351562 0.347656 20.28125 0.421875 C 20.144531 0.691406 19.484375 0.828125 18.296875 0.828125 C 16.148438 0.828125 15.078125 0.550781 15.078125 0 Z M 7.59375 -8.21875 C 7.59375 -5.71875 8.320312 -4.398438 9.78125 -4.265625 C 10.78125 -4.265625 11.503906 -4.4375 11.953125 -4.78125 C 12.929688 -5.4375 13.421875 -7.898438 13.421875 -12.171875 C 11.617188 -11.921875 10.195312 -11.421875 9.15625 -10.671875 C 8.113281 -9.929688 7.59375 -9.113281 7.59375 -8.21875 Z M 7.59375 -8.21875 "/></g></g></g><g fill="#212427" fill-opacity="1"><g transform="translate(718.229605, 551.066416)"><g><path d="M 2.4375 0 L 2.4375 -25.796875 C 2.4375 -26.347656 3.0625 -26.625 4.3125 -26.625 C 5.5625 -26.625 6.738281 -26.535156 7.84375 -26.359375 C 8.957031 -26.191406 9.515625 -26.003906 9.515625 -25.796875 L 9.515625 0 C 9.515625 0.207031 9.5 0.347656 9.46875 0.421875 C 9.289062 0.691406 8.628906 0.828125 7.484375 0.828125 C 6.335938 0.828125 5.207031 0.738281 4.09375 0.5625 C 2.988281 0.394531 2.4375 0.207031 2.4375 0 Z M 5.65625 -32.453125 C 3.164062 -32.453125 1.921875 -33.695312 1.921875 -36.1875 C 1.921875 -38.6875 3.164062 -39.9375 5.65625 -39.9375 C 8.15625 -39.9375 9.40625 -38.6875 9.40625 -36.1875 C 9.40625 -33.695312 8.15625 -32.453125 5.65625 -32.453125 Z M 5.65625 -32.453125 "/></g></g></g><g fill="#212427" fill-opacity="1"><g transform="translate(730.032709, 551.066416)"><g><path d="M 8.421875 -23.71875 C 11.265625 -25.65625 13.144531 -26.625 14.0625 -26.625 C 14.976562 -26.625 15.8125 -26.445312 16.5625 -26.09375 C 17.3125 -25.75 17.859375 -25.40625 18.203125 -25.0625 L 18.671875 -24.59375 C 18.148438 -22.375 17.75 -20.988281 17.46875 -20.4375 C 17.195312 -19.882812 16.828125 -19.609375 16.359375 -19.609375 C 15.890625 -19.609375 15.289062 -19.796875 14.5625 -20.171875 C 13.832031 -20.554688 13.171875 -20.75 12.578125 -20.75 C 11.992188 -20.75 10.816406 -20.210938 9.046875 -19.140625 L 9.046875 0 C 9.046875 0.207031 9.007812 0.347656 8.9375 0.421875 C 8.800781 0.691406 8.160156 0.828125 7.015625 0.828125 C 5.867188 0.828125 4.800781 0.738281 3.8125 0.5625 C 2.832031 0.394531 2.34375 0.207031 2.34375 0 L 2.34375 -25.796875 C 2.34375 -26.347656 3.117188 -26.625 4.671875 -26.625 C 6.234375 -26.625 7.140625 -26.347656 7.390625 -25.796875 L 7.390625 -25.6875 Z M 8.421875 -23.71875 "/></g></g></g><g fill="#212427" fill-opacity="1"><g transform="translate(749.167252, 551.066416)"><g><path d="M 19.296875 -24.859375 C 19.535156 -24.710938 19.65625 -24.390625 19.65625 -23.890625 C 19.65625 -23.390625 19.535156 -22.722656 19.296875 -21.890625 C 18.835938 -20.367188 18.351562 -19.726562 17.84375 -19.96875 L 17.78125 -19.96875 L 15.96875 -20.703125 C 14.957031 -21.148438 13.734375 -21.375 12.296875 -21.375 C 10.859375 -21.375 9.9375 -20.785156 9.53125 -19.609375 C 9.132812 -18.429688 8.9375 -16.160156 8.9375 -12.796875 C 8.9375 -9.429688 9.1875 -7.164062 9.6875 -6 C 10.195312 -4.84375 11.160156 -4.265625 12.578125 -4.265625 C 14.628906 -4.265625 16.222656 -4.382812 17.359375 -4.625 C 18.503906 -4.863281 19.097656 -4.984375 19.140625 -4.984375 C 19.378906 -5.054688 19.578125 -4.921875 19.734375 -4.578125 C 19.890625 -4.234375 19.96875 -3.414062 19.96875 -2.125 C 19.96875 -0.84375 19.691406 -0.132812 19.140625 0 C 16.984375 0.550781 14.867188 0.828125 12.796875 0.828125 C 8.597656 0.828125 5.726562 -0.164062 4.1875 -2.15625 C 2.644531 -4.144531 1.875 -7.757812 1.875 -13 C 1.875 -16.78125 2.210938 -19.628906 2.890625 -21.546875 C 3.566406 -23.472656 4.648438 -24.800781 6.140625 -25.53125 C 7.628906 -26.257812 9.796875 -26.625 12.640625 -26.625 C 15.484375 -26.625 17.679688 -26.035156 19.234375 -24.859375 Z M 19.296875 -24.859375 "/></g></g></g><g fill="#212427" fill-opacity="1"><g transform="translate(770.537627, 551.066416)"><g><path d="M 1.921875 -13 C 1.921875 -16.78125 2.25 -19.640625 2.90625 -21.578125 C 3.570312 -23.515625 4.613281 -24.835938 6.03125 -25.546875 C 7.445312 -26.265625 9.539062 -26.625 12.3125 -26.625 C 15.09375 -26.625 17.191406 -26.265625 18.609375 -25.546875 C 20.035156 -24.835938 21.078125 -23.515625 21.734375 -21.578125 C 22.390625 -19.640625 22.71875 -16.78125 22.71875 -13 C 22.71875 -7.800781 21.972656 -4.195312 20.484375 -2.1875 C 18.992188 -0.175781 16.269531 0.828125 12.3125 0.828125 C 8.363281 0.828125 5.644531 -0.175781 4.15625 -2.1875 C 2.664062 -4.195312 1.921875 -7.800781 1.921875 -13 Z M 9 -13 C 9 -7.175781 9.550781 -4.265625 10.65625 -4.265625 C 12.1875 -4.265625 13.316406 -4.503906 14.046875 -4.984375 C 14.421875 -5.265625 14.675781 -5.769531 14.8125 -6.5 C 15.09375 -7.957031 15.234375 -10.125 15.234375 -13 C 15.234375 -18.75 14.679688 -21.625 13.578125 -21.625 C 11.492188 -21.625 10.207031 -21.144531 9.71875 -20.1875 C 9.238281 -19.238281 9 -16.84375 9 -13 Z M 9 -13 "/></g></g></g><g fill="#212427" fill-opacity="1"><g transform="translate(795.183759, 551.066416)"><g><path d="M 8.3125 0.828125 C 5.75 0.828125 3.867188 -0.21875 2.671875 -2.3125 C 1.484375 -4.40625 0.890625 -8.050781 0.890625 -13.25 C 0.890625 -18.457031 1.640625 -21.988281 3.140625 -23.84375 C 4.648438 -25.695312 7.503906 -26.625 11.703125 -26.625 L 14.203125 -26.625 L 14.203125 -39.109375 C 14.203125 -39.660156 14.804688 -39.9375 16.015625 -39.9375 C 17.234375 -39.9375 18.238281 -39.859375 19.03125 -39.703125 C 19.832031 -39.546875 20.25 -39.347656 20.28125 -39.109375 L 21.15625 -22.515625 L 21.15625 0 C 21.15625 0.207031 21.140625 0.347656 21.109375 0.421875 C 20.941406 0.691406 20.300781 0.828125 19.1875 0.828125 C 18.082031 0.828125 17.140625 0.75 16.359375 0.59375 C 15.578125 0.4375 15.1875 0.238281 15.1875 0 L 14.203125 -1.609375 C 13.191406 -0.953125 12.476562 -0.484375 12.0625 -0.203125 C 10.914062 0.484375 9.664062 0.828125 8.3125 0.828125 Z M 11.703125 -21.625 C 10.421875 -21.625 9.546875 -21.09375 9.078125 -20.03125 C 8.609375 -18.976562 8.375 -17.195312 8.375 -14.6875 C 8.375 -12.175781 8.378906 -10.519531 8.390625 -9.71875 C 8.410156 -8.925781 8.4375 -8.007812 8.46875 -6.96875 C 8.539062 -5.09375 8.785156 -4.15625 9.203125 -4.15625 C 10.453125 -4.15625 12.117188 -4.78125 14.203125 -6.03125 L 14.203125 -21.625 Z M 11.703125 -21.625 "/></g></g></g><g fill="#212427" fill-opacity="1"><g transform="translate(818.633973, 551.066416)"><g><path d="M 11.796875 0.828125 C 8.085938 0.828125 5.515625 -0.175781 4.078125 -2.1875 C 2.640625 -4.195312 1.921875 -7.800781 1.921875 -13 C 1.921875 -16.738281 2.25 -19.585938 2.90625 -21.546875 C 3.570312 -23.503906 4.570312 -24.835938 5.90625 -25.546875 C 7.238281 -26.265625 9.203125 -26.625 11.796875 -26.625 C 14.398438 -26.625 16.367188 -26.257812 17.703125 -25.53125 C 19.035156 -24.800781 20.015625 -23.445312 20.640625 -21.46875 C 21.265625 -19.5 21.578125 -16.691406 21.578125 -13.046875 C 21.578125 -12.835938 21.578125 -12.628906 21.578125 -12.421875 C 21.578125 -12.210938 21.171875 -12.019531 20.359375 -11.84375 C 19.546875 -11.675781 18.566406 -11.59375 17.421875 -11.59375 L 9.40625 -11.59375 C 9.476562 -7.539062 9.773438 -5.238281 10.296875 -4.6875 C 10.609375 -4.40625 11.109375 -4.265625 11.796875 -4.265625 C 16.335938 -4.265625 19.441406 -4.488281 21.109375 -4.9375 C 21.179688 -4.96875 21.234375 -4.984375 21.265625 -4.984375 C 21.503906 -5.054688 21.703125 -4.921875 21.859375 -4.578125 C 22.015625 -4.234375 22.09375 -3.414062 22.09375 -2.125 C 22.09375 -0.84375 21.816406 -0.132812 21.265625 0 C 19.847656 0.550781 16.691406 0.828125 11.796875 0.828125 Z M 9.40625 -19.8125 L 9.40625 -15.75 L 14.65625 -15.75 C 14.519531 -19.769531 14.125 -21.78125 13.46875 -21.78125 C 12.289062 -21.78125 11.316406 -21.609375 10.546875 -21.265625 C 9.785156 -20.921875 9.40625 -20.4375 9.40625 -19.8125 Z M 9.40625 -19.8125 "/></g></g></g></svg>