<svg xmlns="http://www.w3.org/2000/svg" xmlns:xlink="http://www.w3.org/1999/xlink" zoomAndPan="magnify" preserveAspectRatio="xMidYMid meet" version="1.0" viewBox="604 285 239.63 239.63"><defs><g/><clipPath id="49acc7351d"><path d="M 604 285 L 843.625 285 L 843.625 524.625 L 604 524.625 Z M 604 285 " clip-rule="nonzero"/></clipPath><clipPath id="6b5b8f49b4"><path d="M 723.8125 285 C 657.640625 285 604 338.640625 604 404.8125 C 604 470.984375 657.640625 524.625 723.8125 524.625 C 789.984375 524.625 843.625 470.984375 843.625 404.8125 C 843.625 338.640625 789.984375 285 723.8125 285 Z M 723.8125 285 " clip-rule="nonzero"/></clipPath></defs><g clip-path="url(#49acc7351d)"><g clip-path="url(#6b5b8f49b4)"><path fill="#212427" d="M 604 285 L 843.625 285 L 843.625 524.625 L 604 524.625 Z M 604 285 " fill-opacity="1" fill-rule="nonzero"/></g></g><g fill="#f7f7f7" fill-opacity="1"><g transform="translate(632.80467, 438.187498)"><g><path d="M 53.46875 0 L 53.46875 -29.1875 C 53.46875 -36.351562 52.957031 -39.9375 51.9375 -39.9375 C 49.695312 -39.9375 46.460938 -38.6875 42.234375 -36.1875 C 42.554688 -33.820312 42.71875 -31.488281 42.71875 -29.1875 L 42.71875 0 C 42.71875 0.382812 42.6875 0.640625 42.625 0.765625 C 42.300781 1.273438 41.066406 1.53125 38.921875 1.53125 C 36.785156 1.53125 34.578125 1.367188 32.296875 1.046875 C 30.023438 0.734375 28.890625 0.382812 28.890625 0 L 28.890625 -32.734375 C 28.765625 -37.535156 28.253906 -39.9375 27.359375 -39.9375 C 25.054688 -39.9375 21.984375 -38.785156 18.140625 -36.484375 L 18.140625 0 C 18.140625 0.382812 18.109375 0.640625 18.046875 0.765625 C 17.722656 1.273438 16.488281 1.53125 14.34375 1.53125 C 12.207031 1.53125 10 1.367188 7.71875 1.046875 C 5.445312 0.734375 4.3125 0.382812 4.3125 0 L 4.3125 -47.609375 C 4.3125 -48.640625 5.59375 -49.15625 8.15625 -49.15625 C 12.1875 -49.15625 14.492188 -48.640625 15.078125 -47.609375 C 15.078125 -47.484375 15.109375 -47.421875 15.171875 -47.421875 L 16.984375 -43.78125 C 22.367188 -47.363281 26.367188 -49.15625 28.984375 -49.15625 C 34.617188 -49.15625 38.429688 -47.109375 40.421875 -43.015625 C 46.304688 -47.109375 50.6875 -49.15625 53.5625 -49.15625 C 58.300781 -49.15625 61.773438 -47.679688 63.984375 -44.734375 C 66.191406 -41.785156 67.296875 -36.601562 67.296875 -29.1875 L 67.296875 0 C 67.296875 0.382812 67.265625 0.640625 67.203125 0.765625 C 66.878906 1.273438 65.644531 1.53125 63.5 1.53125 C 61.351562 1.53125 59.144531 1.367188 56.875 1.046875 C 54.601562 0.734375 53.46875 0.382812 53.46875 0 Z M 53.46875 0 "/></g></g></g><g fill="#f7f7f7" fill-opacity="1"><g transform="translate(704.324678, 438.187498)"><g><path d="M 2.015625 -47.90625 C 2.015625 -48.738281 3.179688 -49.15625 5.515625 -49.15625 C 7.859375 -49.15625 10.035156 -48.992188 12.046875 -48.671875 C 14.066406 -48.347656 15.109375 -47.992188 15.171875 -47.609375 L 23.71875 -14.78125 L 31.203125 -47.609375 C 31.453125 -48.640625 32.472656 -49.15625 34.265625 -49.15625 C 37.785156 -49.15625 40.125 -48.960938 41.28125 -48.578125 C 42.4375 -48.191406 43.015625 -47.90625 43.015625 -47.71875 L 23.8125 21.5 C 23.550781 22.53125 22.523438 23.046875 20.734375 23.046875 C 18.941406 23.046875 17.46875 22.976562 16.3125 22.84375 C 13.820312 22.53125 12.640625 22.082031 12.765625 21.5 C 12.765625 21.3125 12.796875 21.15625 12.859375 21.03125 L 17.765625 0 L 2.109375 -47.421875 L 2.109375 -47.609375 C 2.046875 -47.742188 2.015625 -47.84375 2.015625 -47.90625 Z M 2.015625 -47.90625 "/></g></g></g><g fill="#85b6b3" fill-opacity="1"><g transform="translate(748.492164, 438.187498)"><g><path d="M 33.40625 -70.46875 C 33.40625 -71.8125 33.707031 -72.691406 34.3125 -73.109375 C 34.925781 -73.523438 36.191406 -73.734375 38.109375 -73.734375 C 42.722656 -73.734375 45.0625 -72.546875 45.125 -70.171875 L 46.9375 -41.375 L 46.9375 -2.015625 C 46.9375 -0.929688 46.90625 -0.195312 46.84375 0.1875 C 46.59375 1.082031 45.347656 1.53125 43.109375 1.53125 C 36.640625 1.53125 33.40625 0.378906 33.40625 -1.921875 L 33.40625 -29.765625 L 17.65625 -29.765625 L 17.765625 -2.015625 C 17.765625 -0.929688 17.726562 -0.195312 17.65625 0.1875 C 17.40625 1.082031 16.160156 1.53125 13.921875 1.53125 C 7.515625 1.53125 4.3125 0.316406 4.3125 -2.109375 L 4.3125 -70.375 C 4.3125 -71.78125 4.613281 -72.691406 5.21875 -73.109375 C 5.832031 -73.523438 7.101562 -73.734375 9.03125 -73.734375 C 13.632812 -73.734375 15.96875 -72.613281 16.03125 -70.375 L 17.65625 -41.28125 L 33.40625 -41.28125 Z M 33.40625 -70.46875 "/></g></g></g></svg>